<?xml version="1.0" encoding="utf-8"?>
<!-- Generator: Adobe Illustrator 16.0.4, SVG Export Plug-In . SVG Version: 6.00 Build 0)  -->
<!DOCTYPE svg PUBLIC "-//W3C//DTD SVG 1.1//EN" "http://www.w3.org/Graphics/SVG/1.1/DTD/svg11.dtd">
<svg version="1.1" id="Layer_1" xmlns="http://www.w3.org/2000/svg" xmlns:xlink="http://www.w3.org/1999/xlink" x="0px" y="0px"
	 width="60px" height="60px" viewBox="0 0 100 100" enable-background="new 0 0 100 100" xml:space="preserve">
<g id="XMLID_3056_">
	<path id="XMLID_3057_" fill="#8DC63F" d="M8.5,42.9c-1.1,1.4-1.8,3.2-1.8,5.1v43.3c0,4.5,3.6,8.1,8.1,8.1h1.1l0.2,0.2l0.2-0.2h68.2
		l0.2,0.2l0.2-0.2h1.1c4.5,0,8.1-3.6,8.1-8.1V48c0-1.9-0.7-3.7-1.8-5.1c0-0.6-0.2-1.1-0.6-1.6L51.9,1.6c-0.8-0.8-2.2-0.8-3,0
		L9.1,41.3C8.7,41.8,8.5,42.3,8.5,42.9z M19.9,95.7l20.3-20.3l8.7,8.7c0.4,0.4,1,0.6,1.5,0.6c0.6,0,1.1-0.2,1.5-0.6l8.7-8.7
		l20.3,20.3H19.9z M26.4,56.8V41.7H75v14.4L50.3,80.8L26.4,56.8z M90.4,48v43.3c0,2.2-1.5,4-3.6,4.4L63.6,72.4L89.9,46
		C90.2,46.6,90.4,47.3,90.4,48z M50.3,6.2L87,42.9l-9.4,9.4V40.4c0-0.7-0.6-1.3-1.3-1.3H25.1c-0.7,0-1.3,0.6-1.3,1.3V53L13.7,42.9
		L50.3,6.2z M10.3,48c0-0.7,0.2-1.4,0.5-2l26.4,26.4L13.9,95.6c-2-0.4-3.6-2.2-3.6-4.4V48z"/>
</g>
</svg>
