<?xml version="1.0" encoding="utf-8"?>
<!-- Generator: Adobe Illustrator 16.0.4, SVG Export Plug-In . SVG Version: 6.00 Build 0)  -->
<!DOCTYPE svg PUBLIC "-//W3C//DTD SVG 1.1//EN" "http://www.w3.org/Graphics/SVG/1.1/DTD/svg11.dtd">
<svg version="1.1" id="Layer_2" xmlns="http://www.w3.org/2000/svg" xmlns:xlink="http://www.w3.org/1999/xlink" x="0px" y="0px"
	 width="66px" height="100px" viewBox="15.2 -3 66 100" enable-background="new 15.2 -3 66 100" xml:space="preserve">
<g display="none">
	<g display="inline">
		<path fill="#E44D26" d="M23,85l-5.8-64.8h63.5L75,85l-26,7.2L23,85z"/>
		<path fill="#F16529" d="M49,86.7l21-5.8l4.9-55.4H49V86.7z"/>
		<path fill="#EBEBEB" d="M49,49.5H38.5l-0.7-8.1H49v-7.9H29.1l0.2,2.1l2,21.9H49V49.5z M49,70.2L49,70.2l-8.9-2.4l-0.6-6.3h-8
			l1.1,12.5L49,78.4l0,0V70.2z"/>
		<path d="M23.2,2.6h4v4h3.7v-4h4v12.1h-4v-4h-3.7v4h-4V2.6z M40.3,6.6h-3.6v-4h11.1v4h-3.6v8.1h-4V6.6L40.3,6.6z M49.6,2.6h4.2
			l2.6,4.2L59,2.6h4.2v12.1h-4v-6L56.4,13h-0.1l-2.8-4.3v6h-4L49.6,2.6L49.6,2.6z M65.2,2.6h4v8.1h5.7v4h-9.7V2.6z"/>
		<path fill="#FFFFFF" d="M49,49.5v7.9h9.8l-0.9,10.3L49,70.2v8.3l16.3-4.5l0.1-1.3l1.9-20.9l0.2-2.1h-2.1H49z M49,33.4v7.9h19.2
			l0.2-1.8l0.4-4l0.2-2.1H49z"/>
	</g>
</g>
<g display="none">
	<path display="inline" fill="none" d="M-4.2-2.2h105.3v105.3H-4.2V-2.2z"/>
	<path display="inline" fill="#2062AF" d="M75.1,89.3l-26.6,7.2l-26.6-7.2l-6.1-66.6h65.6L75.1,89.3z"/>
	<path display="inline" fill="#3C9CD7" d="M48.5,28v62.7l0.1,0l21.6-5.8l5-56.9H48.5L48.5,28z"/>
	<path display="inline" d="M33.4,12.9v-4h5.8V4.6H29v12.3h10.1v-4H33.4z M49.6,8.9h4V4.6H43.5v4.3c1.4,1.4,2.1,2,4,4c-1.1,0-4,0-4,0
		v4h10.1v-4L49.6,8.9L49.6,8.9z M63.9,8.9h4V4.6H57.8v4.3c1.4,1.4,2.1,2,4,4c-1.1,0-4,0-4,0v4H68v-4L63.9,8.9L63.9,8.9z"/>
	<path display="inline" fill="#FFFFFF" d="M48.5,44.7l-19.1,7.9l0.6,7.9l18.4-7.9l19.6-8.4l0.8-8L48.5,44.7L48.5,44.7z"/>
	
		<linearGradient id="SVGID_1_" gradientUnits="userSpaceOnUse" x1="-982.2808" y1="-1471.0771" x2="-982.2808" y2="-1474.4814" gradientTransform="matrix(4.6418 0 0 4.6418 4598.4995 6888.9521)">
		<stop  offset="0.387" style="stop-color:#D1D3D4;stop-opacity:0"/>
		<stop  offset="1" style="stop-color:#D1D3D4"/>
	</linearGradient>
	<path display="inline" fill="url(#SVGID_1_)" d="M29.4,52.6l0.6,7.9l18.4-7.9v-7.9L29.4,52.6z"/>
	
		<linearGradient id="SVGID_2_" gradientUnits="userSpaceOnUse" x1="-978.0273" y1="-1472.7749" x2="-978.0273" y2="-1476.314" gradientTransform="matrix(4.6418 0 0 4.6418 4598.4995 6888.9521)">
		<stop  offset="0.387" style="stop-color:#D1D3D4;stop-opacity:0"/>
		<stop  offset="1" style="stop-color:#D1D3D4"/>
	</linearGradient>
	<path display="inline" fill="url(#SVGID_2_)" d="M68.9,36.2l-20.4,8.5v7.9l19.6-8.4L68.9,36.2z"/>
	
		<linearGradient id="SVGID_3_" gradientUnits="userSpaceOnUse" x1="-984.3286" y1="-1469.5586" x2="-976.1523" y2="-1469.5586" gradientTransform="matrix(4.6418 0 0 4.6418 4598.4995 6888.9521)">
		<stop  offset="0" style="stop-color:#E8E7E5"/>
		<stop  offset="1" style="stop-color:#FFFFFF"/>
	</linearGradient>
	<path display="inline" fill="url(#SVGID_3_)" d="M29.4,52.6l0.6,7.9l28.3,0.1l-0.6,10.5l-9.3,2.6l-8.9-2.3l-0.5-6.5h-8.3l1.1,12.6
		l16.8,5l16.7-4.9l2.2-24.9H29.4z"/>
	<path display="inline" opacity="5.000000e-02" enable-background="new    " d="M48.5,52.6H29.4l0.6,7.9l18.4,0.1V52.6L48.5,52.6z
		 M48.5,73.7L48.5,73.7l-9-2.2l-0.5-6.5h-8.3l1.1,12.6l16.8,5V73.7z"/>
	
		<linearGradient id="SVGID_4_" gradientUnits="userSpaceOnUse" x1="-984.7051" y1="-1475.4473" x2="-975.8276" y2="-1475.4473" gradientTransform="matrix(4.6418 0 0 4.6418 4598.4995 6888.9521)">
		<stop  offset="0" style="stop-color:#E8E7E5"/>
		<stop  offset="1" style="stop-color:#FFFFFF"/>
	</linearGradient>
	<path display="inline" fill="url(#SVGID_4_)" d="M27.7,36.2h41.2l-0.8,8H28.7L27.7,36.2L27.7,36.2z"/>
	<path display="inline" opacity="5.000000e-02" enable-background="new    " d="M48.5,36.2H27.7l1,8h19.8V36.2L48.5,36.2z"/>
</g>
<g display="none">
	<path display="inline" fill="#CF649A" d="M71.8,52c-2.3,0-4.2,0.6-5.9,1.4c-0.6-1.2-1.2-2.3-1.3-3c-0.1-0.9-0.3-1.5-0.1-2.6
		c0.1-1.1,0.8-2.6,0.8-2.8c0-0.1-0.1-0.7-1.4-0.7c-1.3,0-2.4,0.3-2.6,0.6c-0.1,0.3-0.4,1.1-0.5,1.9c-0.2,1.2-2.6,5.4-4,7.6
		c-0.4-0.9-0.8-1.6-0.9-2.2c-0.1-0.9-0.3-1.5-0.1-2.6c0.1-1.1,0.8-2.6,0.8-2.8c0-0.1-0.1-0.7-1.4-0.7c-1.3,0-2.4,0.3-2.6,0.6
		S52.2,48,52,48.8c-0.3,0.8-3.4,7.8-4.3,9.7c-0.4,0.9-0.8,1.7-1.1,2.2c-0.3,0.5,0,0,0,0.1c-0.2,0.4-0.4,0.7-0.4,0.7v0
		c-0.2,0.3-0.4,0.6-0.5,0.6c-0.1,0-0.2-0.8,0-2c0.5-2.4,1.6-6.3,1.6-6.4c0-0.1,0.2-0.7-0.7-1.1c-0.9-0.3-1.3,0.2-1.3,0.2
		S45.2,53,45.2,53s1-4.3-2-4.3c-1.9,0-4.5,2-5.7,3.9C36.7,53,35,53.9,33.1,55c-0.7,0.4-1.4,0.8-2.1,1.2L30.9,56
		c-3.6-3.9-10.3-6.6-10.1-11.8c0.1-1.9,0.8-6.9,12.9-12.9c9.9-4.9,17.9-3.6,19.3-0.6c2,4.3-4.2,12.3-14.6,13.5
		c-3.9,0.4-6-1.1-6.5-1.6c-0.5-0.6-0.6-0.6-0.8-0.5c-0.3,0.2-0.1,0.7,0,1c0.3,0.8,1.6,2.2,3.7,2.9c1.9,0.6,6.5,1,12.1-1.2
		c6.2-2.4,11.1-9.1,9.7-14.8c-1.5-5.7-10.9-7.6-19.9-4.4c-5.3,1.9-11.1,4.9-15.3,8.8C16.5,39,15.7,43,16,44.7
		c1.2,6,9.4,9.9,12.7,12.7c-0.2,0.1-0.3,0.2-0.5,0.3c-1.6,0.8-7.9,4.1-9.5,7.6C17,69.2,19,72,20.4,72.4c4.2,1.2,8.6-0.9,10.9-4.4
		c2.3-3.5,2.1-8,1-10.1l0-0.1l1.3-0.8c0.8-0.5,1.7-1,2.4-1.3c-0.4,1.1-0.7,2.4-0.8,4.3c-0.2,2.2,0.7,5.1,1.9,6.3
		c0.5,0.5,1.2,0.5,1.6,0.5c1.4,0,2-1.2,2.7-2.5c0.9-1.7,1.6-3.6,1.6-3.6s-1,5.3,1.6,5.3c1,0,1.9-1.2,2.3-1.9v0c0,0,0,0,0.1-0.1
		c0.1-0.1,0.1-0.2,0.2-0.2v0c0.4-0.7,1.2-2.2,2.5-4.7c1.6-3.2,3.2-7.2,3.2-7.2s0.2,1,0.6,2.6c0.3,1,0.9,2,1.4,3
		c-0.4,0.5-0.6,0.8-0.6,0.8l0,0c-0.3,0.4-0.6,0.8-1,1.3c-1.3,1.5-2.8,3.3-3,3.8c-0.2,0.6-0.2,1,0.3,1.4c0.3,0.3,1,0.3,1.6,0.3
		c1.2-0.1,2-0.4,2.4-0.5c0.6-0.2,1.4-0.6,2.1-1.1c1.3-0.9,2-2.3,2-4c0-1-0.4-1.9-0.7-2.9c0.1-0.2,0.2-0.3,0.3-0.5
		c2-2.9,3.5-6.1,3.5-6.1s0.2,1,0.6,2.6c0.2,0.8,0.7,1.7,1.2,2.6c-1.9,1.5-3.1,3.3-3.5,4.5c-0.7,2.2-0.2,3.1,0.9,3.4
		c0.5,0.1,1.2-0.1,1.7-0.4c0.7-0.2,1.5-0.6,2.2-1.1c1.3-0.9,2.5-2.2,2.4-4c0-0.8-0.3-1.6-0.5-2.4c1.6-0.7,3.7-1,6.3-0.7
		c5.6,0.7,6.8,4.2,6.5,5.7c-0.2,1.5-1.4,2.3-1.8,2.5c-0.4,0.2-0.5,0.3-0.5,0.5c0.1,0.3,0.2,0.3,0.6,0.2c0.5-0.1,3-1.2,3.1-3.9
		C81,55.7,77.7,51.9,71.8,52L71.8,52z M28.3,66.6c-1.9,2-4.5,2.8-5.6,2.2c-1.2-0.7-0.7-3.7,1.6-5.9c1.4-1.3,3.2-2.5,4.4-3.3
		c0.3-0.2,0.7-0.4,1.2-0.7c0.1,0,0.1-0.1,0.1-0.1c0.1-0.1,0.2-0.1,0.3-0.2C31.1,61.8,30.3,64.5,28.3,66.6L28.3,66.6z M41.9,57.4
		c-0.6,1.6-2,5.7-2.8,5.4c-0.7-0.2-1.1-3.3-0.1-6.3c0.5-1.5,1.6-3.4,2.2-4.1c1-1.1,2.1-1.5,2.4-1.1C43.9,52,42.3,56.4,41.9,57.4z
		 M53.2,62.8c-0.3,0.1-0.5,0.2-0.6,0.2c-0.1,0,0.1-0.2,0.1-0.2s1.4-1.5,2-2.2c0.3-0.4,0.7-0.9,1.1-1.4v0.2
		C55.7,61,54,62.3,53.2,62.8L53.2,62.8z M61.8,60.8c-0.2-0.2-0.2-0.6,0.5-2.1c0.3-0.6,0.9-1.6,1.9-2.5c0.1,0.4,0.2,0.7,0.2,1.1
		C64.5,59.6,62.8,60.4,61.8,60.8z"/>
</g>
<g display="none">
	<path display="inline" fill="#131B28" d="M42.8,49.2L42.8,49.2l-0.6,2.2L42.8,49.2z M46,53.9l-0.7,0L46,53.9z M45.8,57.2L45.8,57.2
		l-4.1,0L45.8,57.2z M46.7,53.9l-0.7,0L46.7,53.9z M46.2,56.9l0.7-2.7L46.2,56.9L46.2,56.9z M61.1,44.5l-1.3,6.2L61.1,44.5z
		 M57.7,44.5l-1,4.6L57.7,44.5L57.7,44.5z"/>
	<path display="inline" fill="#131B28" d="M60.9,44.2h-2.8c-0.2,0-0.3,0.1-0.3,0.3l-1,4.6l-1,4.6c0,0.2-0.2,0.3-0.3,0.3h-2
		c-2,0-1.7-1.4-1.3-3.2l0-0.1l0-0.2l0,0l0.1-0.5l0.1-0.5c0-0.2,0.1-0.4,0.1-0.5l0.5-2.2l0.5-2.2c0-0.2-0.1-0.3-0.2-0.3h-2.9
		c-0.2,0-0.3,0.1-0.3,0.3l-0.6,3l-0.6,3c0,0,0,0,0,0l-0.1,0.3c-0.7,3.3-0.5,6.4,3.4,6.5c0.1,0,0.1,0,0.1,0h6.1
		c0.2,0,0.3-0.1,0.3-0.3l1.3-6.2l1.3-6.2C61.2,44.3,61.1,44.2,60.9,44.2z M72.1,54c0.2,0,0.3,0.1,0.2,0.3l-0.3,1.3 M71.8,57l0.3-1.3
		L71.8,57L71.8,57z M71.5,57.3L71.5,57.3c-0.8,0-3.3,0-5.2,0C68.6,57.3,71.5,57.3,71.5,57.3z M64.6,52.3c0-0.1,0.2-0.4,0.3-0.4
		l-0.4,0C64.4,53.5,64.6,52.3,64.6,52.3z"/>
	<path display="inline" fill="#131B28" d="M66.5,57.3C66.5,57.3,66.5,57.3,66.5,57.3C66.5,57.3,66.5,57.3,66.5,57.3z M72.1,54
		c0.2,0,0.3,0.1,0.2,0.3l-0.3,1.3l0,0.2 M67.9,57.3L67.9,57.3L67.9,57.3z M67.2,57.3L67.2,57.3L67.2,57.3z M67,57.3
		C67,57.3,66.9,57.3,67,57.3C66.9,57.3,67,57.3,67,57.3z M66.8,57.3L66.8,57.3L66.8,57.3z M67.1,57.3H67H67.1z M67.9,57.3
		c-0.2,0-0.5,0-0.7,0C67.4,57.3,67.6,57.3,67.9,57.3z M71.8,57l0.2-1.1L71.8,57L71.8,57z M66.9,57.3h-0.1H66.9z M66.5,57.3h-0.2
		H66.5z M66.7,57.3h-0.2H66.7z M25.5,52.4l0.4-1.9l-0.5,2.2l-0.5,2.3l0.4-2C25.4,52.8,25.4,52.5,25.5,52.4L25.5,52.4z M30.7,44.2
		h-3.1c-0.2,0-0.3,0.1-0.3,0.3L27,45.7L26.7,47c0,0.2,0.1,0.3,0.2,0.3H30c0.2,0,0.3-0.1,0.3-0.3l0.3-1.3l0.3-1.3l0,0
		C31,44.3,30.9,44.2,30.7,44.2L30.7,44.2z M30,48.5L30,48.5l-0.9,4.2L30,48.5L30,48.5z M21.1,62.4c0,0,1.6,0,2.6,0
		C22.9,62.4,21.6,62.4,21.1,62.4L21.1,62.4z M26.4,48.5l-0.4,1.9L26.4,48.5z"/>
	<path display="inline" fill="#131B28" d="M29.8,48.2h-3.1c-0.2,0-0.3,0.1-0.3,0.3l-0.4,1.9l-0.4,1.9c0,0.2-0.1,0.4-0.1,0.6l-0.4,2
		l-0.4,2c0,0.2-0.1,0.4-0.2,0.5c0,0-0.6,1.7-1.6,1.7c0,0-0.1,0-0.1,0c-0.5,0-0.8,0-0.8,0h0c-0.2,0-0.3,0.1-0.3,0.3l-0.3,1.4
		l-0.3,1.4c0,0.2,0.1,0.3,0.2,0.3c0.6,0,1.8,0,2.6,0c2.4,0,3.7-1.4,4.6-5.3l1-4.5l0.9-4.2C30.1,48.3,30,48.2,29.8,48.2L29.8,48.2z
		 M74.1,57.1c-0.2,0-0.3-0.1-0.2-0.3l2.3-11 M77.4,56.9l0.9-4.7L77.4,56.9z"/>
	<path display="inline" fill="#131B28" d="M73.9,57c0-0.1,0-0.3,0-0.4l1.1-5.2l-1.2,5.5c0,0.2,0.1,0.3,0.2,0.3h0.3
		C74.3,57.1,74,57.1,73.9,57L73.9,57z M77.2,57.1c-0.1,0-0.3,0.1-0.4,0.1h0.3c0.2,0,0.3-0.1,0.3-0.3l0.1-0.3
		C77.4,56.7,77.3,57,77.2,57.1L77.2,57.1z M77.9,54.5l0.4-2.1c0,0,0,0,0,0L77.9,54.5z M87.1,46.6l0.1,0.5c0,0.2-0.1,0.3-0.2,0.3
		 M77.5,56.6l0.4-2.1L77.5,56.6z M87,46.1l0.1,0.5L87,46.1z M78.3,52.5c0-0.2,0.1-0.4,0.1-0.6l0.4-2.1l-0.5,2.4L78.3,52.5L78.3,52.5
		z M76.3,45.7c0,0.1-0.1,0.3-0.1,0.5l-1.1,5.2l1.2-5.5L76.3,45.7z"/>
	<path display="inline" fill="#131B28" d="M87.3,47.1l-0.1-0.5L87,46.1l-0.1-0.3c-0.3-1-1-1.6-2.6-1.6l-2.5,0l-2.3,0h-2.6
		c-0.2,0-0.3,0.1-0.3,0.3l0,0l-0.1,0.5l-0.1,0.6l0,0.2l-1.2,5.5L74,56.6c0,0.2,0,0.3,0,0.4c0,0.1,0.3,0.1,0.5,0.1h2.4
		c0.2,0,0.4,0,0.4-0.1c0.1,0,0.2-0.3,0.2-0.5l0.4-2.1l0.4-2.1l0,0l0.1-0.3l0.5-2.4l0.4-2.1c0-0.2,0.2-0.3,0.3-0.3l7.4,0
		C87.2,47.4,87.3,47.3,87.3,47.1z"/>
	<path display="inline" fill="#131B28" d="M96.8,42.3c-0.2,0-0.4,0-0.6,0h-2.4c-0.2,0-0.4,0.1-0.4,0.2l-5.2,7.7
		c-0.1,0.1-0.2,0.1-0.2,0l-0.4-1.7c0-0.2-0.2-0.3-0.3-0.3h-3.4c-0.2,0-0.2,0.1-0.2,0.3l1.5,5.3c0,0.1,0,0.4,0,0.5l-0.7,2.6
		c0,0.2,0.1,0.3,0.2,0.3H88c0.2,0,0.3-0.1,0.4-0.3l0.7-2.6c0-0.2,0.1-0.4,0.2-0.5l8.5-11.3c0.1-0.1,0-0.2-0.1-0.2L96.8,42.3z
		 M70,48.9L70,48.9c0,0.2-0.2,0.3-0.3,0.3h-4.3c-0.1,0-0.2-0.1-0.2-0.2c0,0,0,0,0,0c0,0,0,0,0,0c0,0,0,0,0,0l0-0.1
		c0.4-1.1,1.2-1.8,2.8-1.8C69.8,47.1,70.2,48,70,48.9L70,48.9z M68.8,44c-5.5,0-6.8,3.3-7.5,6.7c-0.7,3.4-0.7,6.6,5,6.6h0.2
		c0,0,0,0,0.1,0h0.4c0,0,0,0,0.1,0h0.2h0c0.2,0,0.5,0,0.7,0h0c1.5,0,3,0,3.6,0c0.2,0,0.3-0.1,0.3-0.3l0.2-1.1l0-0.2l0.3-1.3
		c0-0.2-0.1-0.3-0.2-0.3H67c-2,0-2.6-0.5-2.4-2.1h8.1l0,0c0,0,0,0,0,0c0.1,0,0.2-0.1,0.3-0.2c0,0,0,0,0-0.1v0
		C74.3,47.1,74,44,68.8,44L68.8,44z M42.9,48.9l-0.1,0.3v0l-0.6,2.2l-0.6,2.2c0,0.2-0.2,0.3-0.4,0.3H38c-2.5,0-3.1-1.9-2.5-4.8
		c0.6-2.9,1.8-4.7,4.2-4.9C43,43.9,43.7,46.2,42.9,48.9L42.9,48.9z M45.1,53.7c0,0,1.5-3.7,1.9-5.9c0.5-2.9-1-7.1-6.5-7.1
		c-5.5,0-7.9,4-8.9,8.3c-0.9,4.4,0.3,8.2,5.8,8.2l4.3,0l4.1,0c0.2,0,0.3-0.1,0.4-0.3l0.7-2.7c0-0.2-0.1-0.3-0.2-0.3l-0.7,0l-0.7,0
		C45.2,53.9,45.1,53.8,45.1,53.7C45.1,53.7,45.1,53.7,45.1,53.7L45.1,53.7L45.1,53.7z"/>
	<path display="inline" fill="#131B28" d="M72.6,51.2c0,0.1-0.1,0.2-0.2,0.2c-0.1,0-0.2-0.1-0.2-0.2c0-0.1,0.1-0.2,0.2-0.2
		C72.5,51,72.6,51.1,72.6,51.2z"/>
	<path display="inline" fill="#0868AC" d="M2.8,46.3c-1.5,2.2-1.3,5.1-0.2,7.4c0,0.1,0.1,0.1,0.1,0.2c0,0,0,0.1,0.1,0.1
		c0,0,0,0,0,0.1c0,0,0,0.1,0.1,0.1c0,0.1,0.1,0.1,0.1,0.2c0,0,0,0.1,0.1,0.1c0,0.1,0.1,0.1,0.1,0.2c0,0,0,0.1,0.1,0.1
		c0.1,0.1,0.1,0.2,0.2,0.3l0,0c0,0,0,0,0,0c0.1,0.1,0.1,0.2,0.2,0.2c0,0,0,0.1,0.1,0.1c0.1,0.1,0.1,0.2,0.2,0.3
		c0.1,0.1,0.1,0.2,0.2,0.3c0,0,0,0,0,0c0.2,0.2,0.3,0.3,0.5,0.5c0,0,0,0,0.1,0.1c0.1,0.1,0.2,0.2,0.2,0.2c0,0,0,0,0,0
		c0.1,0.1,0.1,0.1,0.2,0.2c0,0,0.1,0,0.1,0.1c0.1,0,0.1,0.1,0.2,0.1l0.1,0.1c0.1,0.1,0.1,0.1,0.2,0.1c0,0,0,0,0.1,0.1c0,0,0,0,0,0
		c0.1,0,0.1,0.1,0.2,0.1c0,0,0.1,0,0.1,0.1c0.1,0.1,0.2,0.1,0.3,0.2c0,0,0.1,0,0.1,0c0.1,0,0.2,0.1,0.2,0.1c0,0,0.1,0,0.1,0.1
		c0.1,0,0.1,0.1,0.2,0.1c0,0,0,0,0,0c0,0,0,0,0.1,0c0.1,0.1,0.2,0.1,0.3,0.2c0.1,0,0.2,0.1,0.3,0.1c0,0,0.1,0,0.1,0
		c0.1,0,0.2,0.1,0.3,0.1c0.1,0,0.2,0.1,0.3,0.1c0,0,0.1,0,0.1,0c0.1,0,0.2,0.1,0.3,0.1c7.4,1.4,9.5-4.4,9.5-4.4c-1.8,2.4-5,3-8,2.3
		c-0.1,0-0.2-0.1-0.3-0.1c-0.1,0-0.3-0.1-0.4-0.1l0,0c-0.1,0-0.2-0.1-0.3-0.1c0,0-0.1,0-0.1,0c-0.1,0-0.2-0.1-0.3-0.1c0,0,0,0-0.1,0
		C8.9,56.1,8.8,56,8.7,56c-0.1,0-0.1-0.1-0.2-0.1c0,0-0.1,0-0.1-0.1c-0.1,0-0.2-0.1-0.2-0.1c0,0-0.1,0-0.1,0
		c-0.1-0.1-0.2-0.1-0.3-0.2c0,0-0.1,0-0.1-0.1c-0.1,0-0.2-0.1-0.2-0.1c0,0,0,0-0.1-0.1c-0.1,0-0.1-0.1-0.2-0.2C7.1,55,7,55,7,55
		c-0.1-0.1-0.2-0.1-0.3-0.2c-0.1-0.1-0.2-0.1-0.2-0.2l0,0c-0.1-0.1-0.2-0.1-0.3-0.2c0,0,0,0-0.1-0.1C6.1,54.2,6,54.1,6,54
		c0,0,0,0-0.1-0.1c-0.1-0.1-0.1-0.2-0.2-0.2l0,0c-0.1-0.1-0.2-0.2-0.2-0.3c0,0,0,0-0.1-0.1c-0.1-0.1-0.1-0.1-0.2-0.2
		c0,0,0,0-0.1-0.1C5.1,53,5,53,5,52.9c-1.7-2.3-2.3-5.5-0.9-8.1"/>
	<path display="inline" fill="#0868AC" d="M7.6,44.5c-1.1,1.6-1,3.7-0.2,5.4c0.1,0.3,0.3,0.6,0.5,0.8c0.2,0.2,0.4,0.5,0.6,0.7
		c0.1,0.1,0.2,0.2,0.2,0.3c0,0,0,0,0.1,0.1C8.9,51.8,8.9,51.9,9,52c0,0,0,0,0,0c0,0,0,0,0,0c0.1,0.1,0.2,0.2,0.3,0.2
		c0,0,0,0,0.1,0.1c0.1,0.1,0.2,0.2,0.3,0.2c0,0,0,0,0,0c0,0,0.1,0.1,0.1,0.1c0,0,0,0,0.1,0c0.1,0,0.2,0.1,0.2,0.1c0,0,0,0,0,0
		c0.1,0,0.1,0.1,0.2,0.1c0,0,0,0,0.1,0c0,0,0.1,0,0.1,0.1c0,0,0,0,0,0c0.1,0,0.2,0.1,0.3,0.1c0,0,0,0,0.1,0c0.1,0,0.2,0.1,0.2,0.1
		c0,0,0.1,0,0.1,0c0.1,0,0.1,0.1,0.2,0.1c0,0,0.1,0,0.1,0c0.1,0,0.2,0.1,0.3,0.1c5.7,0.9,7-3.5,7-3.5c-1.2,1.7-3.5,2.5-5.9,1.9
		c-0.1,0-0.3-0.1-0.4-0.1c-0.1,0-0.2-0.1-0.3-0.1c-0.1,0-0.2-0.1-0.2-0.1c0,0,0,0-0.1,0c-0.1,0-0.2-0.1-0.3-0.1
		c-0.1,0-0.1-0.1-0.1-0.1l-0.1,0c-0.1,0-0.1-0.1-0.2-0.1c0,0,0,0,0,0c-0.1,0-0.2-0.1-0.2-0.1c0,0,0,0-0.1,0c0,0-0.1-0.1-0.1-0.1
		c-0.1-0.1-0.2-0.1-0.3-0.2c0,0,0,0-0.1-0.1c-1.1-0.9-1.9-2-2.3-3.3c-0.4-1.4-0.3-2.9,0.4-4.1"/>
	<path display="inline" fill="#0868AC" d="M11.6,43.1c-0.7,1-0.7,2.2-0.3,3.2c0.5,1.1,1.5,2,2.6,2.4c0,0,0.1,0,0.1,0.1
		c0,0,0,0,0.1,0c0.1,0,0.1,0,0.2,0.1c3.2,0.6,4-1.6,4.2-1.9c-0.7,1.1-2,1.3-3.6,1c-0.1,0-0.3-0.1-0.4-0.1c-0.2-0.1-0.3-0.1-0.4-0.2
		c-0.3-0.1-0.5-0.3-0.8-0.5c-1.4-1-2.2-3-1.3-4.7 M47.1,61.8l-0.9,2.1h-1l0.1-1.9l-0.7,1.9h-1l0-2.1l0.1-0.5h0.7l-0.1,2l0.8-2h1
		l-0.1,2.1l0.8-2.1h0.6L47.1,61.8z M48.7,62.4c0.1-0.4,0.1-0.5-0.1-0.5h-0.3L48,62.9l-0.3,1h-0.6l0.5-2.2l0.1-0.3h0.5l0.1,0.2
		c0,0,0.3-0.2,0.6-0.2c0.6,0,0.6,0.5,0.5,1.1H48.7z M50.6,60.9c-0.3,0-0.4-0.1-0.4-0.4c0.1-0.3,0.3-0.4,0.5-0.4
		c0.3,0,0.4,0.1,0.4,0.4C51,60.9,50.8,60.9,50.6,60.9L50.6,60.9z M50.3,63.8h-0.6l0.1-1l0.2-0.9l-0.4-0.1l0.1-0.5h1.1L50.3,63.8
		L50.3,63.8z M52.8,61.8l-0.7,0.1l-0.2,1c-0.1,0.3-0.1,0.3,0.2,0.3h0.5l-0.1,0.5c0,0-0.4,0.1-0.6,0.1c-0.7,0-0.7-0.4-0.6-1l0.2-1
		L51,61.8l0.1-0.5h0.4l0.2-0.7h0.6l-0.1,0.7h0.7L52.8,61.8L52.8,61.8z M54.3,61.8c-0.3,0-0.5,0.2-0.6,0.5l1-0.1
		C54.8,62,54.7,61.8,54.3,61.8z M53.7,62.8c0,0.3,0.1,0.4,0.5,0.4h1L55,63.7c0,0-0.6,0.2-1.1,0.2c-1.1,0-1.1-0.6-1-1.3
		c0.1-0.7,0.4-1.3,1.5-1.3c1.1,0,1.1,0.6,0.8,1.6H53.7L53.7,62.8z M57.6,63.8h-0.6l0.1-1l0.4-1.9l-0.4-0.1l0.1-0.5h1.1L57.6,63.8
		L57.6,63.8z M59.7,61.8c-0.3,0-0.5,0.2-0.6,0.5l1-0.1C60.2,62,60.1,61.8,59.7,61.8z M59.1,62.8c0,0.3,0.1,0.4,0.5,0.4h1l-0.1,0.5
		c0,0-0.6,0.2-1.1,0.2c-1.1,0-1.1-0.6-1-1.3c0.1-0.7,0.4-1.3,1.5-1.3c1.1,0,1.1,0.6,0.8,1.6H59.1L59.1,62.8z M63.4,61.9
		c0,0-0.7,0-0.9,0C62,61.9,62,62,62,62.2l0,0.1l1.4,0.1c0,0,0,0.4-0.1,0.7c-0.1,0.4-0.5,0.8-1.3,0.8c-0.4,0-1-0.1-1-0.1l0.1-0.5H62
		c0.4,0,0.5-0.1,0.5-0.2l0-0.2l-1.3-0.1c0,0-0.1-0.3,0-0.7c0.1-0.5,0.5-0.8,1.3-0.8c0.4,0,1,0.1,1,0.1L63.4,61.9z M65.9,61.9
		c0,0-0.7,0-0.9,0c-0.4,0-0.5,0.1-0.5,0.3l0,0.1l1.4,0.1c0,0,0,0.4-0.1,0.7c-0.1,0.4-0.5,0.8-1.3,0.8c-0.4,0-1-0.1-1-0.1l0.1-0.5
		h0.9c0.4,0,0.5-0.1,0.5-0.2l0-0.2l-1.3-0.1c0,0,0-0.3,0-0.7c0.1-0.5,0.5-0.8,1.3-0.8c0.4,0,1,0.1,1,0.1L65.9,61.9z M66.7,64.3h-0.5
		l0-0.4c-0.2,0-0.3-0.1-0.2-0.4c0.1-0.3,0.3-0.4,0.5-0.4c0.3,0,0.4,0.1,0.4,0.4L66.7,64.3z M70.1,61.9c-0.4,0-0.5,0.2-0.6,0.6
		c-0.1,0.4-0.1,0.7,0.3,0.7h0.5l0.3-1.3H70.1z M71,63.5l-0.1,0.3l-0.5,0l-0.1-0.2c0,0-0.5,0.2-0.8,0.2c-0.8,0-0.8-0.7-0.7-1.3
		c0.1-0.7,0.5-1.3,1.3-1.3c0.3,0,0.7,0.1,0.7,0.1l0.3-1.1h0.6L71,63.5L71,63.5z M73.1,61.9c-0.5,0-0.7,0.3-0.7,0.7
		c-0.1,0.4,0,0.7,0.4,0.7c0.5,0,0.7-0.3,0.7-0.7C73.6,62.2,73.6,61.9,73.1,61.9L73.1,61.9z M72.6,63.9c-1,0-1.1-0.7-1-1.3
		c0.1-0.7,0.5-1.3,1.6-1.3c1,0,1.1,0.6,1,1.3C74,63.2,73.7,63.9,72.6,63.9L72.6,63.9z M78.5,63.8l0.1-1l0.1-0.3
		c0.1-0.4,0.1-0.7-0.3-0.7h-0.3c0,0.2,0,0.4-0.1,0.6l-0.3,1.3h-0.6l0.1-1l0.1-0.3c0.1-0.4,0.1-0.7-0.3-0.7h-0.3l-0.4,1.9h-0.7
		l0.5-2.6h0.5l0.1,0.2c0,0,0.4-0.2,0.7-0.2c0.2,0,0.4,0.1,0.4,0.2c0.1-0.1,0.5-0.2,0.7-0.2c0.8,0,0.8,0.7,0.6,1.3l-0.3,1.3H78.5
		L78.5,63.8L78.5,63.8z M81.2,61.9c-0.5,0-0.7,0.3-0.7,0.7c-0.1,0.4,0,0.7,0.4,0.7c0.5,0,0.7-0.3,0.7-0.7
		C81.8,62.2,81.7,61.9,81.2,61.9z M80.8,63.9c-1,0-1.1-0.7-1-1.3c0.1-0.7,0.5-1.3,1.6-1.3c1,0,1.1,0.6,1,1.3
		C82.2,63.2,81.8,63.9,80.8,63.9z M84.1,62.4c0.1-0.4,0.1-0.5-0.1-0.5h-0.3l-0.2,0.9l-0.3,1h-0.6l0.5-2.2l0.1-0.3h0.5l0.1,0.2
		c0,0,0.3-0.2,0.6-0.2c0.6,0,0.6,0.5,0.5,1.1H84.1z M86.4,61.8c-0.3,0-0.5,0.2-0.6,0.5l1-0.1C86.8,62,86.7,61.8,86.4,61.8z
		 M85.7,62.8c0,0.3,0.1,0.4,0.5,0.4h1l-0.1,0.5c0,0-0.6,0.2-1.1,0.2c-1.1,0-1.1-0.6-1-1.3c0.1-0.7,0.4-1.3,1.5-1.3
		c1.1,0,1.1,0.6,0.8,1.6H85.7L85.7,62.8z M87.9,63.9c-0.3,0-0.4-0.1-0.4-0.4c0.1-0.3,0.3-0.4,0.5-0.4c0.2,0,0.4,0.1,0.4,0.4
		C88.4,63.8,88.2,63.9,87.9,63.9z"/>
</g>
<g display="none">
	<path display="inline" fill="#F7DF1E" d="M15.8,15.8h65.3v65.3H15.8V15.8z"/>
	<path display="inline" d="M33,70.4l5-3c1,1.7,1.8,3.2,3.9,3.2c2,0,3.3-0.8,3.3-3.9V45.8h6.1v21c0,6.4-3.7,9.3-9.2,9.3
		C37.3,76,34.5,73.5,33,70.4 M54.7,69.8l5-2.9c1.3,2.1,3,3.7,6.1,3.7c2.5,0,4.2-1.3,4.2-3c0-2.1-1.7-2.9-4.5-4.1l-1.5-0.7
		c-4.4-1.9-7.4-4.3-7.4-9.3c0-4.6,3.5-8.1,9-8.1c3.9,0,6.7,1.4,8.7,4.9l-4.8,3.1c-1.1-1.9-2.2-2.6-3.9-2.6c-1.8,0-2.9,1.1-2.9,2.6
		c0,1.8,1.1,2.6,3.8,3.7l1.5,0.7c5.2,2.2,8.2,4.5,8.2,9.6c0,5.5-4.3,8.6-10.2,8.6C60.2,76,56.5,73.3,54.7,69.8"/>
</g>
<g display="none">
	<path display="inline" fill="#FFFFFF" d="M12.8,51.3c0,5.3,5.2,10.2,13.3,13c-1.6,8.2-0.3,14.8,4.2,17.3c4.6,2.6,11.4,0.8,17.9-4.8
		c6.3,5.4,12.7,7.6,17.1,5c4.6-2.6,6-9.7,4.3-18.1c8.5-2.8,13.2-7,13.2-12.3c0-5.2-5.2-9.6-13.2-12.4c1.8-8.8,0.3-15.2-4.4-17.9
		c-4.5-2.6-10.9-0.3-17.3,5.2c-6.7-5.9-13-7.7-17.7-5c-4.5,2.6-5.7,9.3-4.1,17.6C18.3,41.6,12.8,46.1,12.8,51.3z"/>
	<path display="inline" fill="#53C1DE" d="M67.9,41.6c-0.7-0.2-1.3-0.4-2-0.6c0.1-0.5,0.2-0.9,0.3-1.4c1.5-7.3,0.5-13.3-2.9-15.2
		c-3.2-1.9-8.5,0.1-13.9,4.7c-0.5,0.5-1,0.9-1.5,1.4c-0.3-0.3-0.7-0.6-1-1c-5.6-5-11.2-7.1-14.6-5.1c-3.2,1.9-4.2,7.4-2.8,14.4
		c0.1,0.7,0.3,1.4,0.5,2.1c-0.8,0.2-1.6,0.5-2.3,0.7C21,44,16.8,47.6,16.8,51.3c0,3.8,4.5,7.7,11.4,10c0.6,0.2,1.1,0.4,1.7,0.5
		c-0.2,0.7-0.3,1.5-0.5,2.2c-1.3,6.8-0.3,12.3,2.9,14.1c3.3,1.9,8.9-0.1,14.4-4.8c0.4-0.4,0.9-0.8,1.3-1.2c0.5,0.5,1.1,1,1.7,1.5
		c5.3,4.5,10.5,6.4,13.7,4.5c3.3-1.9,4.4-7.8,3-14.9c-0.1-0.5-0.2-1.1-0.4-1.7c0.4-0.1,0.8-0.2,1.2-0.4c7.1-2.4,11.7-6.2,11.7-10.1
		C78.9,47.6,74.6,44,67.9,41.6L67.9,41.6z"/>
	<path display="inline" fill="#FFFFFF" d="M66.3,58.9c-0.3,0.1-0.7,0.2-1,0.3c-0.8-2.5-1.8-5.1-3.1-7.9c1.2-2.7,2.3-5.3,3-7.8
		c0.6,0.2,1.3,0.4,1.8,0.6c5.7,2,9.2,4.9,9.2,7.2C76.2,53.7,72.5,56.8,66.3,58.9L66.3,58.9z M63.8,63.9c0.6,3.1,0.7,6,0.3,8.2
		c-0.4,2-1.1,3.3-2,3.9c-2,1.1-6.1-0.3-10.7-4.2c-0.5-0.4-1-0.9-1.6-1.4c1.7-1.9,3.5-4.1,5.2-6.6c3-0.3,5.8-0.7,8.4-1.3
		C63.5,62.9,63.7,63.4,63.8,63.9L63.8,63.9z M38,75.8c-1.9,0.7-3.4,0.7-4.4,0.2c-2-1.1-2.8-5.5-1.7-11.3c0.1-0.7,0.3-1.4,0.5-2.1
		c2.5,0.6,5.4,1,8.4,1.2c1.7,2.4,3.5,4.6,5.3,6.6c-0.4,0.4-0.8,0.7-1.2,1.1C42.5,73.5,40.1,75,38,75.8L38,75.8z M29,58.8
		c-3-1-5.5-2.4-7.2-3.8c-1.5-1.3-2.3-2.6-2.3-3.7c0-2.3,3.4-5.1,9-7.1c0.7-0.2,1.4-0.5,2.1-0.7c0.8,2.5,1.8,5.2,3,7.8
		c-1.2,2.7-2.3,5.4-3.1,8C30,59.2,29.5,59,29,58.8z M32,38.4c-1.2-6-0.4-10.5,1.6-11.6c2.1-1.2,6.7,0.5,11.5,4.8
		c0.3,0.3,0.6,0.6,0.9,0.9c-1.8,1.9-3.6,4.1-5.3,6.5c-2.9,0.3-5.7,0.7-8.3,1.3C32.3,39.7,32.2,39.1,32,38.4L32,38.4z M58.8,45
		c-0.6-1-1.2-2.1-1.9-3.1c2,0.3,3.9,0.6,5.7,1c-0.5,1.7-1.2,3.5-2,5.3C60,47.2,59.4,46.1,58.8,45L58.8,45z M47.9,34.4
		c1.2,1.3,2.4,2.8,3.7,4.4c-2.4-0.1-4.9-0.1-7.3,0C45.4,37.2,46.6,35.7,47.9,34.4z M36.9,45c-0.6,1.1-1.2,2.1-1.8,3.2
		c-0.8-1.8-1.4-3.6-2-5.4c1.8-0.4,3.7-0.7,5.6-1C38.1,42.9,37.5,44,36.9,45z M38.9,60.9c-2-0.2-3.9-0.5-5.7-0.9
		c0.5-1.8,1.2-3.6,2-5.5c0.6,1.1,1.1,2.2,1.8,3.2C37.5,58.8,38.2,59.8,38.9,60.9z M48,68.4c-1.3-1.4-2.5-2.9-3.7-4.5
		c1.2,0,2.4,0.1,3.6,0.1c1.3,0,2.5,0,3.7-0.1C50.4,65.6,49.2,67.1,48,68.4z M60.6,54.4c0.8,1.9,1.5,3.7,2.1,5.5
		c-1.8,0.4-3.7,0.7-5.8,1c0.7-1,1.3-2.1,1.9-3.2C59.4,56.6,60,55.5,60.6,54.4L60.6,54.4z M56.5,56.4c-0.9,1.6-1.9,3.2-3,4.8
		c-1.8,0.1-3.7,0.2-5.7,0.2c-1.9,0-3.8-0.1-5.6-0.2c-1.1-1.6-2.1-3.2-3-4.8c-0.9-1.6-1.8-3.3-2.6-5c0.8-1.7,1.7-3.4,2.6-5v0
		c0.9-1.6,1.9-3.2,3-4.8c1.8-0.1,3.7-0.2,5.7-0.2c1.9,0,3.8,0.1,5.7,0.2c1.1,1.6,2,3.1,3,4.8c0.9,1.6,1.8,3.3,2.7,5
		C58.4,53,57.5,54.7,56.5,56.4L56.5,56.4z M62,26.7c2.1,1.2,2.9,6,1.6,12.4c-0.1,0.4-0.2,0.8-0.3,1.2c-2.6-0.6-5.4-1-8.3-1.3
		c-1.7-2.4-3.5-4.6-5.2-6.5c0.5-0.4,0.9-0.9,1.4-1.3C55.7,27.2,60,25.6,62,26.7L62,26.7z"/>
	<path display="inline" fill="#53C1DE" d="M47.9,45.8c3.1,0,5.5,2.5,5.5,5.5c0,3.1-2.5,5.5-5.5,5.5c-3.1,0-5.5-2.5-5.5-5.5
		C42.3,48.2,44.8,45.8,47.9,45.8"/>
</g>
<g display="none">
	<path display="inline" fill="#FFC24A" d="M16.5,76.9l0.5-0.8l25.4-48.2l0.1-0.5l-11.2-21c-0.9-1.8-3.6-1.3-3.9,0.7L16.5,76.9z"/>
	<g display="inline">
		<path id="a" fill="#FFA712" d="M16.9,76.3l0.4-0.8l25.1-47.7L31.2,6.7c-0.9-1.7-3.3-1.3-3.6,0.7L16.9,76.3z"/>
	</g>
	<g display="inline">
		<path id="a_13_" d="M16.9,76.3l0.4-0.8l25.1-47.7L31.2,6.7c-0.9-1.7-3.3-1.3-3.6,0.7L16.9,76.3z"/>
	</g>
	<path display="inline" fill="#F4BD62" d="M50.7,43.3l8.3-8.5l-8.3-15.9c-0.8-1.5-3-1.5-3.8,0l-4.5,8.5v0.7L50.7,43.3L50.7,43.3z"/>
	<g display="inline">
		<path id="c" fill="#FFA50E" d="M50.6,43l8.1-8.3l-8.1-15.4c-0.8-1.5-2.6-1.6-3.4-0.1l-4.5,8.6l-0.1,0.4L50.6,43z"/>
	</g>
	<g display="inline">
		<path id="c_13_" d="M50.6,43l8.1-8.3l-8.1-15.4c-0.8-1.5-2.6-1.6-3.4-0.1l-4.5,8.6l-0.1,0.4L50.6,43z"/>
	</g>
	<path display="inline" fill="#F6820C" d="M16.5,76.9l0.2-0.2l0.9-0.4l32.5-32.4l0.4-1.1l-8.1-15.5L16.5,76.9z"/>
	<path display="inline" fill="#FDE068" d="M51.7,93.2l29.4-16.4l-8.4-51.7c-0.3-1.6-2.2-2.3-3.4-1.1L16.5,76.9l29.2,16.3
		C47.6,94.3,49.9,94.3,51.7,93.2"/>
	<path display="inline" fill="#FCCA3F" d="M80.9,76.7l-8.3-51.3c-0.3-1.6-1.9-2.3-3.1-1.1L16.9,76.8L45.8,93c1.8,1,4.1,1,5.9,0
		L80.9,76.7L80.9,76.7z"/>
	<path display="inline" fill="#EEAB37" d="M51.7,92.7c-1.8,1-4.1,1-5.9,0l-29-16.1l-0.2,0.2l29.2,16.3c1.8,1,4.1,1,5.9,0l29.4-16.4
		l-0.1-0.4L51.7,92.7L51.7,92.7z"/>
</g>
<g display="none">
	
		<linearGradient id="SVGID_5_" gradientUnits="userSpaceOnUse" x1="-997.7617" y1="-1274.4199" x2="-994.8328" y2="-1268.231" gradientTransform="matrix(8.3322 0 0 8.3322 8345.5293 10630.832)">
		<stop  offset="0" style="stop-color:#A0CBFF"/>
		<stop  offset="0.394" style="stop-color:#A0CBFE"/>
		<stop  offset="0.583" style="stop-color:#8EC2FC"/>
		<stop  offset="0.784" style="stop-color:#83BCFB"/>
		<stop  offset="1" style="stop-color:#7FBAFB"/>
	</linearGradient>
	<path display="inline" fill="url(#SVGID_5_)" d="M16.5,15.4h63.7V78H16.5V15.4z"/>
	
		<linearGradient id="SVGID_6_" gradientUnits="userSpaceOnUse" x1="-996.7227" y1="-1273.3408" x2="-995.0673" y2="-1267.8398" gradientTransform="matrix(8.3322 0 0 8.3322 8345.5293 10630.832)">
		<stop  offset="0" style="stop-color:#090058"/>
		<stop  offset="1" style="stop-color:#070033"/>
	</linearGradient>
	<path display="inline" fill="url(#SVGID_6_)" d="M21.6,20.4h53.5V73H21.6V20.4z"/>
	<g display="inline">
		
			<linearGradient id="SVGID_7_" gradientUnits="userSpaceOnUse" x1="-998.6729" y1="-1274.0898" x2="-995.7441" y2="-1267.9014" gradientTransform="matrix(8.3322 0 0 8.3322 8345.5293 10630.832)">
			<stop  offset="0" style="stop-color:#A0CBFF"/>
			<stop  offset="0.394" style="stop-color:#A0CBFE"/>
			<stop  offset="0.583" style="stop-color:#8EC2FC"/>
			<stop  offset="0.784" style="stop-color:#83BCFB"/>
			<stop  offset="1" style="stop-color:#7FBAFB"/>
		</linearGradient>
		<path fill="url(#SVGID_7_)" d="M31.9,33c0,0,4-0.1,7.3-0.1c3.3,0,5.7,0.8,7.3,2.2c1.5,1.3,2.6,3.5,2.6,6.1s-0.8,4.6-2.2,6.1
			c-1.9,1.9-4,3-7.7,3.2c-1,0-2,0.1-2,0.1v8.3h-5.4V33L31.9,33z M37.3,45.9c0.6,0.1,1,0,1.8,0c2.9,0,4.7-1.8,4.7-4.4
			c0-2.4-1.5-4.3-4.2-4.4c-1.1,0-2.2,0-2.2,0V45.9z"/>
		
			<linearGradient id="SVGID_8_" gradientUnits="userSpaceOnUse" x1="-997.0049" y1="-1274.8979" x2="-994.0649" y2="-1268.6857" gradientTransform="matrix(8.3322 0 0 8.3322 8345.5293 10630.832)">
			<stop  offset="0" style="stop-color:#A0CBFF"/>
			<stop  offset="0.394" style="stop-color:#A0CBFE"/>
			<stop  offset="0.583" style="stop-color:#8EC2FC"/>
			<stop  offset="0.784" style="stop-color:#83BCFB"/>
			<stop  offset="1" style="stop-color:#7FBAFB"/>
		</linearGradient>
		<path fill="url(#SVGID_8_)" d="M51.2,53c1.1,0.7,3.6,1.7,5.4,1.7c1.8,0,2.5-0.6,2.5-1.6c0-1-0.6-2-2.8-2.8
			c-3.9-1.3-5.4-2.9-5.4-5.2c0-3.6,3-6.3,7.7-6.3c2.2,0,4,0.7,5.1,1.3v4.3c-0.9-0.5-3.3-1.5-4.9-1.5c-1.4,0-2.2,0.6-2.2,1.6
			c0,0.9,0.7,1.4,3.1,2.2c3.6,1.3,5.1,3.1,5.2,5.9c0,3.6-2.7,6.4-8.2,6.2c-1.9-0.1-4-0.8-5.4-1.6V53L51.2,53z"/>
	</g>
</g>
<g display="none">
	
		<linearGradient id="SVGID_9_" gradientUnits="userSpaceOnUse" x1="-954.583" y1="-1460.4707" x2="-966.7631" y2="-1448.2906" gradientTransform="matrix(5.2166 0 0 5.2166 5060.4854 7631.5459)">
		<stop  offset="0" style="stop-color:#FFAA2A"/>
		<stop  offset="1" style="stop-color:#FFC06C"/>
	</linearGradient>
	<path display="inline" fill="url(#SVGID_9_)" d="M16.3,13.2h64.8v63.5H16.3V13.2z"/>
	
		<linearGradient id="SVGID_10_" gradientUnits="userSpaceOnUse" x1="-960.7241" y1="-1459.4702" x2="-960.7241" y2="-1449.2352" gradientTransform="matrix(5.2166 0 0 5.2166 5060.4854 7631.5459)">
		<stop  offset="0" style="stop-color:#251200"/>
		<stop  offset="1" style="stop-color:#000000"/>
	</linearGradient>
	<path display="inline" fill="url(#SVGID_10_)" d="M40,45.5h5.7l-2.9-11.1L40,45.5z M21.2,18.2v53.6h55.1V18.2H21.2z M48.9,57.8
		l-2.1-7.2H39l-2.1,7.2h-5.3l7.5-25.6v-2.8h7.1l8.5,28.4H48.9z M63,57.8h-5.7V36.1H63V57.8z M60.2,33.6c-1.6,0-3-1.3-3-2.9
		s1.3-2.9,3-2.9c1.6,0,3,1.3,3,2.9S61.8,33.6,60.2,33.6z"/>
</g>
<g display="none">
	<path display="inline" fill="#EB43A3" d="M16.6,13.5h64.6v62.9H16.6V13.5z"/>
	<path display="inline" fill="#412534" d="M21.5,18.5h54.6v52.8H21.5V18.5z"/>
	<path display="inline" opacity="0.302" enable-background="new    " d="M63.2,30l-2.6,11.6L41.4,31.5l-1.7,12l-3.2,14.6l18.8,13.2
		h20.8V39.5L63.2,30z M21.5,18.5h54.6v1.8H21.5V18.5z"/>
	<g display="inline">
		<path fill="#EB43A3" d="M41.5,31.5v26.6h-4.9V31.5H41.5z M63,30v22.7c0,2,0.1,4.1,0.2,5.4h-4.3l-0.2-3h-0.1
			c-1.1,2.1-3.5,3.5-6.3,3.5c-4.6,0-8.2-3.9-8.2-9.8c0-6.4,4-10.3,8.6-10.3c2.6,0,4.5,1.1,5.4,2.5h0.1V30H63z M58.2,46.9
			c0-0.4,0-0.9-0.1-1.3c-0.4-1.9-2-3.4-4.2-3.4c-3.1,0-4.9,2.8-4.9,6.4c0,3.5,1.7,6.1,4.8,6.1c2,0,3.7-1.3,4.2-3.4
			c0.1-0.4,0.2-0.9,0.2-1.4V46.9L58.2,46.9z"/>
	</g>
</g>
<g display="none">
	<title>logo-symbol</title>
	<desc>Created using Figma</desc>
	<g transform="translate(.17 30.901)" display="inline">
		<path id="a_1_" fill="#EA6C00" d="M29,40.8l19.2,37.6L16,40.8H29z"/>
	</g>
	<g transform="matrix(-1 0 0 1 94.64 30.901)" display="inline">
		<path id="b" fill="#EA6C00" d="M67.4,40.8L48.2,78.4l32.3-37.6H67.4z"/>
	</g>
	<g transform="translate(19.3 30.901)" display="inline">
		<path id="c_1_" fill="#FDAD00" d="M29,40.8h38.4L48.2,78.4L29,40.8z"/>
	</g>
	<g transform="translate(19.3 .42)" display="inline">
		<path id="d" fill="#FDD231" d="M48.2,20L30,21.9l-1,18.9L48.2,20z"/>
	</g>
	<g transform="matrix(-1 0 0 1 75.5 .42)" display="inline">
		<path id="e" fill="#FDD231" d="M48.2,20l18.2,1.9l1,18.9L48.2,20z"/>
	</g>
	<g transform="matrix(-1 0 0 1 94.64 3.234)" display="inline">
		<path id="f" fill="#FDAD00" d="M80.5,40.8L66.4,21.9l1,18.9H80.5z"/>
	</g>
	<g transform="translate(.17 3.234)" display="inline">
		<path id="g" fill="#FDAD00" d="M16,40.8L30,21.9l-1,18.9H16z"/>
	</g>
	<g transform="translate(19.3 .42)" display="inline">
		<path id="h" fill="#FEEEB7" d="M48.2,20L29,40.8h38.4L48.2,20z"/>
	</g>
</g>
<g>
	<title>Figma.logo</title>
	<desc>Created using Figma</desc>
	<path id="path0_fill" d="M33.2,95c8.8,0,16-7.2,16-16V63h-16c-8.8,0-16,7.2-16,16C17.2,87.8,24.3,95,33.2,95z"/>
	<path id="path1_fill" d="M17.2,47c0-8.8,7.2-16,16-16h16v32h-16C24.3,63,17.2,55.8,17.2,47z"/>
	<path id="path1_fill_1_" d="M17.2,15c0-8.8,7.2-16,16-16h16v32h-16C24.3,31,17.2,23.8,17.2,15z"/>
	<path id="path2_fill" d="M49.2-1h16c8.8,0,16,7.2,16,16c0,8.8-7.2,16-16,16h-16V-1z"/>
	<path id="path3_fill" d="M81.2,47c0,8.8-7.2,16-16,16s-16-7.2-16-16c0-8.8,7.2-16,16-16S81.2,38.2,81.2,47z"/>
</g>
</svg>
