<?xml version="1.0" encoding="utf-8"?>
<!-- Generator: Adobe Illustrator 16.0.4, SVG Export Plug-In . SVG Version: 6.00 Build 0)  -->
<!DOCTYPE svg PUBLIC "-//W3C//DTD SVG 1.1//EN" "http://www.w3.org/Graphics/SVG/1.1/DTD/svg11.dtd">
<svg version="1.1" id="Layer_1" xmlns="http://www.w3.org/2000/svg" xmlns:xlink="http://www.w3.org/1999/xlink" x="0px" y="0px"
	 width="63.3px" height="100px" viewBox="0 0 63.3 100" enable-background="new 0 0 63.3 100" xml:space="preserve">
<g>
	<g>
		<g display="none">
			<g display="inline">
				<path fill="#E44F26" d="M2.8,92.9L-2,39.6h51.2l-4.6,53.3l-21,5.9L2.8,92.9z"/>
				<path fill="#F1662A" d="M23.7,94.2l16.9-4.7l4-45.5H23.7V94.2z"/>
				<path fill="#EBEBEB" d="M23.7,63.8h-8.6l-0.5-6.6h9v-6.5h-16l0.1,1.7l1.6,17.9h14.2v-6.6H23.7z M23.7,80.8L23.7,80.8l-7.3-2
					l-0.5-5.1H9.5l0.9,10.3l13.2,3.6l0,0v-6.7H23.7z"/>
				<path fill="#010101" d="M2.9,25.1h3.2v3.3h3v-3.3h3.2V35H9.1v-3.3h-3V35H2.9V25.1z M16.6,28.4h-2.9v-3.3h9v3.3h-2.9V35h-3.2
					V28.4L16.6,28.4z M24.1,25.1h3.4l2.1,3.4l2.1-3.4h3.4V35H32v-4.9l-2.4,3.6h-0.1l-2.2-3.6V35h-3.2V25.1L24.1,25.1z M36.8,25.1
					h3.2v6.6h4.6V35h-7.8V25.1z"/>
				<path fill="#FFFFFF" d="M23.7,63.8v6.5h7.9l-0.8,8.4l-7.1,2.1v6.9l13.2-3.7l0.1-1.1l1.6-17.1l0.1-1.7H37H23.9v-0.3H23.7z
					 M23.7,50.4v6.5h15.4l0.1-1.5l0.3-3.3l0.1-1.7H23.7z"/>
			</g>
		</g>
		<g display="none">
			<path display="inline" fill="none" d="M-19.3,18.8h84.9v86.5h-84.9V18.8z"/>
			<path display="inline" fill="#2363AF" d="M44.7,93.9l-21.5,5.9L1.7,93.9l-4.9-54.7h52.9L44.7,93.9z"/>
			<path display="inline" fill="#3D9CD6" d="M23.3,43.6v51.5h0.1l17.3-4.9l4.1-46.7H23.3L23.3,43.6z"/>
			<path display="inline" fill="#010101" d="M11.1,31.2v-3.3h4.6v-3.6H7.5v10.2h8.2v-3.3H11.1z M24.1,27.9h3.2v-3.6h-8.2v3.6
				c1.2,1.2,1.7,1.6,3.2,3.3c-0.9,0-3.2,0-3.2,0v3.3h8.2v-3.3L24.1,27.9L24.1,27.9z M35.7,27.9h3.2v-3.6h-8.2v3.6
				c1.2,1.2,1.7,1.6,3.2,3.3c-0.9,0-3.2,0-3.2,0v3.3h8.2v-3.3L35.7,27.9L35.7,27.9z"/>
			<path display="inline" fill="#FFFFFF" d="M23.3,57.3L7.9,63.8l0.5,6.5l14.8-6.5L39,56.9l0.7-6.6L23.3,57.3L23.3,57.3z"/>
			
				<linearGradient id="SVGID_1_" gradientUnits="userSpaceOnUse" x1="-808.8408" y1="-1276" x2="-808.8408" y2="-1280.1814" gradientTransform="matrix(3.1025 0 0 3.1025 2524.9785 4028.9609)">
				<stop  offset="0.387" style="stop-color:#D2D3D4;stop-opacity:0"/>
				<stop  offset="1" style="stop-color:#D2D3D4"/>
			</linearGradient>
			<path display="inline" fill="url(#SVGID_1_)" d="M7.9,63.8l0.5,6.5l14.8-6.5v-6.5L7.9,63.8z"/>
			
				<linearGradient id="SVGID_2_" gradientUnits="userSpaceOnUse" x1="-803.6982" y1="-1278.0869" x2="-803.6982" y2="-1282.4341" gradientTransform="matrix(3.1025 0 0 3.1025 2524.9785 4028.9609)">
				<stop  offset="0.387" style="stop-color:#D2D3D4;stop-opacity:0"/>
				<stop  offset="1" style="stop-color:#D2D3D4"/>
			</linearGradient>
			<path display="inline" fill="url(#SVGID_2_)" d="M39.7,50.3l-16.3,7v6.5l15.8-6.9L39.7,50.3z"/>
			
				<linearGradient id="SVGID_3_" gradientUnits="userSpaceOnUse" x1="-811.3232" y1="-1274.1211" x2="-801.4656" y2="-1274.1211" gradientTransform="matrix(3.1025 0 0 3.1025 2524.9785 4028.9609)">
				<stop  offset="0" style="stop-color:#E8E7E5"/>
				<stop  offset="1" style="stop-color:#FFFFFF"/>
			</linearGradient>
			<path display="inline" fill="url(#SVGID_3_)" d="M7.9,63.8l0.5,6.5l22.8,0.1l-0.5,8.6L23.2,81l-7.1-1.8l-0.4-5.3H9l0.9,10.3
				l13.6,4.1l13.4-4.1l1.7-20.3L7.9,63.8L7.9,63.8z"/>
			<path display="inline" opacity="5.000000e-02" fill="#010101" enable-background="new    " d="M23.3,63.8H7.9l0.5,6.5l14.8,0.1
				L23.3,63.8L23.3,63.8z M23.3,81.2L23.3,81.2l-7.3-1.8L15.7,74H9l0.9,10.3l13.6,4.1L23.3,81.2L23.3,81.2z"/>
			
				<linearGradient id="SVGID_4_" gradientUnits="userSpaceOnUse" x1="-811.7729" y1="-1281.3438" x2="-801.0649" y2="-1281.3438" gradientTransform="matrix(3.1025 0 0 3.1025 2524.9785 4028.9609)">
				<stop  offset="0" style="stop-color:#E8E7E5"/>
				<stop  offset="1" style="stop-color:#FFFFFF"/>
			</linearGradient>
			<path display="inline" fill="url(#SVGID_4_)" d="M6.5,50.3h33.2L39,56.9H7.2L6.5,50.3L6.5,50.3z"/>
			<path display="inline" opacity="5.000000e-02" fill="#010101" enable-background="new    " d="M23.3,50.3H6.5l0.8,6.6h16v-6.6
				H23.3z"/>
		</g>
		<g display="none">
			<path display="inline" fill="#CF659B" d="M42,63.2c-1.8,0-3.4,0.5-4.7,1.2c-0.5-0.9-0.9-1.8-1.1-2.5c-0.1-0.8-0.3-1.2-0.1-2.1
				c0.1-0.9,0.7-2.1,0.7-2.2c0-0.1-0.1-0.5-1.2-0.5c-1.1,0-2,0.3-2.1,0.5c-0.1,0.3-0.3,0.9-0.4,1.6c-0.1,0.9-2.1,4.5-3.2,6.2
				c-0.3-0.8-0.7-1.3-0.8-1.8c-0.1-0.8-0.3-1.2-0.1-2.1c0.1-0.9,0.7-2.1,0.7-2.2c0-0.1-0.1-0.5-1.2-0.5c-1.1,0-2,0.3-2.1,0.5
				c-0.1,0.3-0.3,1.1-0.5,1.7c-0.3,0.7-2.8,6.5-3.4,7.9c-0.3,0.8-0.7,1.5-0.9,1.8c-0.3,0.4,0,0,0,0.1c-0.1,0.3-0.3,0.5-0.3,0.5l0,0
				c-0.1,0.3-0.3,0.5-0.4,0.5c-0.1,0-0.1-0.7,0-1.6c0.4-2,1.3-5.1,1.3-5.3s0.1-0.5-0.5-0.9c-0.8-0.3-1.1,0.1-1.1,0.1l-0.1,0.1
				c0,0,0.8-3.6-1.6-3.6c-1.6,0-3.7,1.6-4.6,3.2c-0.7,0.3-2,1.1-3.6,2c-0.5,0.3-1.2,0.7-1.7,0.9l0.1-0.3c-2.9-3.2-8.3-5.4-8.2-9.8
				c0.1-1.6,0.7-5.7,10.4-10.5c8-4.1,14.4-2.9,15.6-0.5c1.6,3.6-3.4,10.2-11.7,11.1c-3.2,0.3-4.9-0.9-5.3-1.3
				c-0.4-0.5-0.5-0.5-0.7-0.4c-0.3,0.1-0.1,0.5,0,0.8c0.3,0.7,1.3,1.8,3,2.4c1.6,0.5,5.3,0.8,9.8-0.9c5-2,9-7.5,7.8-12.1
				c-1.2-4.7-8.8-6.2-16.1-3.6c-4.2,1.6-9,4.1-12.4,7.3c-4,3.8-4.6,7.1-4.4,8.4c0.9,4.9,7.5,8.2,10.3,10.4C7.1,67.8,7,67.8,6.9,68
				c-1.3,0.7-6.3,3.4-7.6,6.2c-1.3,3.2,0.3,5.5,1.3,5.8c3.4,0.9,7-0.8,8.8-3.6c1.8-2.9,1.7-6.6,0.8-8.3V68l1.1-0.7
				c0.7-0.4,1.3-0.8,2-1.1c-0.3,0.9-0.5,2-0.7,3.6C12.4,71.7,13,74,14.1,75c0.4,0.4,0.9,0.4,1.3,0.4c1.2,0,1.6-0.9,2.2-2.1
				c0.8-1.5,1.3-2.9,1.3-2.9s-0.8,4.4,1.3,4.4c0.8,0,1.6-0.9,1.8-1.6l0,0c0,0,0,0,0.1-0.1c0.1-0.1,0.1-0.1,0.1-0.1l0,0
				c0.3-0.5,0.9-1.8,2-3.8c1.3-2.6,2.6-5.9,2.6-5.9s0.1,0.8,0.5,2.1c0.3,0.8,0.7,1.6,1.2,2.5c-0.3,0.4-0.5,0.7-0.5,0.7l0,0
				c-0.3,0.3-0.5,0.7-0.8,1.1c-1.1,1.2-2.2,2.8-2.4,3.2c-0.1,0.5-0.1,0.8,0.3,1.2c0.3,0.3,0.8,0.3,1.3,0.3c0.9-0.1,1.6-0.3,2-0.4
				c0.5-0.1,1.2-0.5,1.7-0.9c1.1-0.8,1.6-1.8,1.6-3.3c0-0.8-0.3-1.6-0.5-2.4c0.1-0.1,0.1-0.3,0.3-0.4c1.6-2.4,2.8-5,2.8-5
				s0.1,0.8,0.5,2.1c0.1,0.7,0.5,1.5,0.9,2.1c-1.6,1.2-2.5,2.8-2.8,3.7c-0.5,1.8-0.1,2.5,0.7,2.8c0.4,0.1,0.9-0.1,1.3-0.3
				c0.5-0.1,1.2-0.5,1.7-0.9c1.1-0.8,2-1.8,2-3.3c0-0.7-0.3-1.3-0.4-2c1.3-0.5,3-0.8,5.1-0.5c4.5,0.5,5.5,3.4,5.3,4.7
				c-0.1,1.2-1.2,1.8-1.5,2.1c-0.3,0.1-0.4,0.3-0.4,0.4c0.1,0.3,0.1,0.3,0.5,0.1c0.4-0.1,2.4-0.9,2.5-3.2
				C49.4,66.4,46.8,63.2,42,63.2L42,63.2z M7,75.2c-1.6,1.6-3.7,2.2-4.5,1.8c-0.9-0.5-0.5-3,1.3-4.9c1.2-1.1,2.6-2.1,3.6-2.8
				c0.3-0.1,0.5-0.3,0.9-0.5c0.1,0,0.1-0.1,0.1-0.1c0.1-0.1,0.1-0.1,0.3-0.1C9.2,71.4,8.6,73.5,7,75.2L7,75.2z M17.9,67.7
				c-0.5,1.3-1.6,4.7-2.2,4.5c-0.5-0.1-0.9-2.8-0.1-5.1c0.4-1.2,1.3-2.8,1.7-3.4c0.8-0.9,1.7-1.2,2-0.9
				C19.5,63.2,18.3,66.9,17.9,67.7z M27,72.2c-0.3,0.1-0.4,0.1-0.5,0.1s0.1-0.1,0.1-0.1s1.2-1.2,1.6-1.8c0.3-0.3,0.5-0.8,0.9-1.2
				v0.1C29.1,70.7,27.7,71.8,27,72.2L27,72.2z M34,70.5c-0.1-0.1-0.1-0.5,0.4-1.7c0.3-0.5,0.7-1.3,1.6-2.1c0.1,0.3,0.1,0.5,0.1,0.9
				C36.1,69.6,34.8,70.2,34,70.5z"/>
		</g>
		<g>
			<path fill="#131B28" d="M18.7,61L18.7,61l-0.5,1.8L18.7,61z M21.2,64.8h-0.5H21.2z M21.1,67.6L21.1,67.6h-3.3H21.1z M21.9,64.8
				h-0.5H21.9z M21.4,67.3l0.5-2.2L21.4,67.3L21.4,67.3z M33.5,57.2l-1.1,5.1L33.5,57.2z M30.7,57.2L29.9,61L30.7,57.2L30.7,57.2z"
				/>
			<path fill="#131B28" d="M33.2,56.9H31c-0.1,0-0.3,0.1-0.3,0.3L29.9,61l-0.8,3.8c0,0.1-0.1,0.3-0.3,0.3h-1.6
				c-1.6,0-1.3-1.2-1.1-2.6v-0.1v-0.1l0,0l0.1-0.4l0.1-0.4c0-0.1,0.1-0.3,0.1-0.4l0.4-1.8l0.4-1.8c0-0.1-0.1-0.3-0.1-0.3h-2.4
				c-0.1,0-0.3,0.1-0.3,0.3l-0.5,2.5l-0.5,2.5l0,0l-0.1,0.3c-0.5,2.8-0.4,5.3,2.8,5.3c0.1,0,0.1,0,0.1,0h4.9c0.1,0,0.3-0.1,0.3-0.3
				l1.1-5.1l1.1-5.1C33.5,57,33.5,56.9,33.2,56.9z M42.3,64.9c0.1,0,0.3,0.1,0.1,0.3l-0.3,1.1 M42,67.4l0.3-1.1L42,67.4L42,67.4z
				 M41.8,67.6L41.8,67.6c-0.7,0-2.6,0-4.2,0C39.4,67.6,41.8,67.6,41.8,67.6z M36.2,63.5c0-0.1,0.1-0.3,0.3-0.3h-0.3
				C36.1,64.5,36.2,63.5,36.2,63.5z"/>
			<path fill="#131B28" d="M37.8,67.6L37.8,67.6L37.8,67.6z M42.3,64.9c0.1,0,0.3,0.1,0.1,0.3l-0.3,1.1v0.1 M38.9,67.6L38.9,67.6
				L38.9,67.6z M38.4,67.6L38.4,67.6L38.4,67.6z M38.2,67.6C38.2,67.6,38.1,67.6,38.2,67.6C38.1,67.6,38.2,67.6,38.2,67.6z M38,67.6
				L38,67.6L38,67.6z M38.2,67.6L38.2,67.6L38.2,67.6z M38.9,67.6c-0.1,0-0.4,0-0.5,0C38.5,67.6,38.6,67.6,38.9,67.6z M42,67.4
				l0.1-0.9L42,67.4L42,67.4z M38.1,67.6L38.1,67.6L38.1,67.6z M37.8,67.6h-0.3H37.8z M38,67.6h-0.1H38z M4.7,63.6L5,62l-0.4,1.8
				l-0.4,1.8l0.3-1.6C4.6,63.9,4.6,63.8,4.7,63.6L4.7,63.6z M9,56.9H6.5c-0.1,0-0.3,0.1-0.3,0.3l-0.3,0.9l-0.3,1.1
				c0,0.1,0.1,0.3,0.1,0.3h2.5c0.1,0,0.3-0.1,0.3-0.3l0.3-1.1L9.1,57l0,0C9.2,57,9.1,56.9,9,56.9L9,56.9z M8.3,60.5L8.3,60.5
				l-0.7,3.4L8.3,60.5L8.3,60.5z M1.2,71.8c0,0,1.3,0,2.1,0C2.6,71.8,1.6,71.8,1.2,71.8L1.2,71.8z M5.4,60.5L5.1,62L5.4,60.5z"/>
			<path fill="#131B28" d="M8.2,60.2H5.7c-0.1,0-0.3,0.1-0.3,0.3L5.1,62l-0.3,1.6c0,0.1-0.1,0.3-0.1,0.5l-0.3,1.6l-0.3,1.6
				c0,0.1-0.1,0.3-0.1,0.4c0,0-0.5,1.5-1.3,1.5H2.6c-0.4,0-0.7,0-0.7,0l0,0c-0.1,0-0.3,0.1-0.3,0.3l-0.3,1.1l-0.3,1.2
				c0,0.1,0.1,0.3,0.1,0.3c0.5,0,1.5,0,2.1,0c2,0,3-1.2,3.7-4.4l0.8-3.7l0.8-3.4C8.4,60.2,8.3,60.2,8.2,60.2L8.2,60.2z M43.9,67.4
				c-0.1,0-0.3-0.1-0.1-0.3l1.8-9.1 M46.5,67.3l0.7-3.8L46.5,67.3z"/>
			<path fill="#131B28" d="M43.8,67.4c0-0.1,0-0.3,0-0.3l0.9-4.2L43.8,67.4c-0.1,0.1,0,0.1,0.1,0.1h0.3C44,67.4,43.8,67.4,43.8,67.4
				L43.8,67.4z M46.4,67.4c-0.1,0-0.3,0.1-0.3,0.1L46.4,67.4c0.1,0.1,0.1,0,0.1-0.1l0.1-0.3C46.5,67.2,46.5,67.4,46.4,67.4
				L46.4,67.4z M46.9,65.3l0.3-1.7l0,0L46.9,65.3z M54.3,58.9l0.1,0.4c0,0.1-0.1,0.3-0.1,0.3 M46.7,67l0.3-1.7L46.7,67z M54.3,58.5
				l0.1,0.4L54.3,58.5z M47.3,63.8c0-0.1,0.1-0.3,0.1-0.5l0.3-1.7l-0.4,2V63.8L47.3,63.8z M45.6,58.1c0,0.1-0.1,0.3-0.1,0.4
				l-0.9,4.2l0.9-4.5v-0.1H45.6z"/>
			<path fill="#131B28" d="M54.6,59.3l-0.1-0.4l-0.1-0.4l-0.1-0.3c-0.3-0.8-0.8-1.3-2.1-1.3h-2h-1.8h-2.1c-0.1,0-0.3,0.1-0.3,0.3
				l0,0l-0.1,0.4l-0.1,0.5v0.1l-0.9,4.5L43.8,67c0,0.1,0,0.3,0,0.3c0,0.1,0.3,0.1,0.4,0.1h2c0.1,0,0.3,0,0.3-0.1
				c0.1,0,0.1-0.3,0.1-0.4l0.3-1.7l0.3-1.7l0,0l0.1-0.3l0.4-2l0.3-1.7c0-0.1,0.1-0.3,0.3-0.3H54C54.4,59.5,54.6,59.4,54.6,59.3z"/>
			<path fill="#131B28" d="M62.2,55.3c-0.1,0-0.3,0-0.5,0h-2c-0.1,0-0.3,0.1-0.3,0.1l-4.2,6.3c-0.1,0.1-0.1,0.1-0.1,0l-0.4-1.3
				c0-0.1-0.1-0.3-0.3-0.3h-2.8c-0.1,0-0.1,0.1-0.1,0.3l1.2,4.3c0,0.1,0,0.3,0,0.4l-0.5,2.1c0,0.1,0.1,0.3,0.1,0.3H55
				c0.1,0,0.3-0.1,0.3-0.3l0.8-2.1c0-0.1,0.1-0.3,0.1-0.4l6.9-9.2c0.1-0.1,0-0.1-0.1-0.1h-0.7V55.3z M40.6,60.7L40.6,60.7
				c0,0.1-0.1,0.3-0.3,0.3h-3.4c-0.1,0-0.1-0.1-0.1-0.1l0,0l0,0l0,0v-0.1c0.3-0.9,0.9-1.4,2.2-1.4C40.5,59.3,40.7,60.1,40.6,60.7
				L40.6,60.7z M39.7,56.8c-4.5,0-5.5,2.8-6.1,5.5c-0.5,2.8-0.5,5.4,4.1,5.4h0.1c0,0,0,0,0.1,0h0.3c0,0,0,0,0.1,0h0.1l0,0
				c0.1,0,0.4,0,0.5,0l0,0c1.2,0,2.4,0,2.9,0c0.1,0,0.3-0.1,0.3-0.3l0.1-0.9v-0.1l0.3-1.1c0-0.1-0.1-0.3-0.1-0.3h-4.2
				c-1.6,0-2.1-0.4-2-1.7h6.6l0,0l0,0c0.1,0,0.1-0.1,0.3-0.1c0,0,0,0,0-0.1l0,0C44,59.3,43.8,56.8,39.7,56.8L39.7,56.8z M18.7,60.7
				L18.6,61l0,0l-0.5,1.8l-0.5,1.8c0,0.1-0.1,0.3-0.3,0.3h-2.6c-2,0-2.5-1.6-2-4c0.5-2.4,1.5-3.8,3.4-4.1
				C18.8,56.6,19.4,58.5,18.7,60.7L18.7,60.7z M20.6,64.7c0,0,1.2-3,1.6-4.9c0.4-2.4-0.8-5.8-5.3-5.8c-4.5,0-6.3,3.3-7.1,6.9
				c-0.7,3.6,0.3,6.7,4.6,6.7h3.4h3.3c0.1,0,0.3-0.1,0.3-0.3l0.5-2.2c0-0.1-0.1-0.3-0.1-0.3h-0.5h-0.5
				C20.6,64.8,20.6,64.8,20.6,64.7L20.6,64.7L20.6,64.7L20.6,64.7z"/>
			<path fill="#131B28" d="M42.7,62.6c0,0.1-0.1,0.1-0.1,0.1l-0.1-0.1c0-0.1,0.1-0.1,0.1-0.1L42.7,62.6z"/>
			<path fill="#0A69AD" d="M16.3,24.3C13.4,28.8,13.7,34.5,16,39c0,0.3,0.3,0.3,0.3,0.3s0,0.3,0.3,0.3c0,0,0,0,0,0.3
				c0,0,0,0.3,0.3,0.3c-0.3,0-0.3,0-0.3,0s0,0.3,0.3,0.3c0,0.3,0.3,0.3,0.3,0.3s0,0.3,0.3,0.3c0.3,0.3,0.3,0.3,0.3,0.6l0,0l0,0
				c0.3,0.3,0.3,0.3,0.3,0.3s0,0.3,0.3,0.3c0.3,0.3,0.3,0.3,0.3,0.6c0,0.3,0,0.3,0.3,0.3l0,0c0.3,0.3,0.6,0.6,1,1c0,0,0,0,0.3,0.3
				c0.3,0.3,0.3,0.3,0.3,0.3l0,0c0.3,0.3,0.3,0.3,0.3,0.3s0.3,0,0.3,0.3c0.3,0,0.3,0.3,0.3,0.3l0.3,0.3c0,0,0,0,0.3,0
				c0,0,0,0,0.3,0.3l0,0l0,0c0,0,0.3,0,0.3,0.3c0.3,0.3,0.3,0.3,0.6,0.3H24c0.3,0,0.3,0.3,0.3,0.3s0.3,0,0.3,0.3
				c0.3,0,0.3,0.3,0.3,0.3l0,0c0,0,0,0,0.3,0c0,0,0,0,0.3,0c0.3,0,0.3,0.3,0.6,0.3h0.3c0.3,0,0.3,0.3,0.6,0.3c0.3,0,0.3,0.3,0.6,0.3
				h0.3c0.3,0,0.3,0.3,0.6,0.3C43.2,52.5,47.4,41,47.4,41c-3.5,4.8-9.9,6.1-15.7,4.5c-0.3,0-0.3-0.3-0.6-0.3c-0.3,0-0.6-0.3-0.6-0.3
				l0,0c-0.3,0-0.3-0.3-0.6-0.3h-0.6c-0.3,0-0.3-0.3-0.6-0.3c0,0,0,0-0.3,0c0-0.3-0.3-0.6-0.3-0.6s0,0-0.3,0c0,0-0.3,0-0.3-0.3
				c-0.3,0-0.3-0.3-0.3-0.3l0,0c-0.3-0.3-0.3-0.3-0.6-0.3c0,0-0.3,0-0.3-0.3c-0.3,0-0.3-0.3-0.3-0.3s0,0-0.3-0.3
				c-0.3,0-0.3-0.3-0.3-0.3c-0.3,0-0.3,0-0.3,0C24.3,41,24.3,41,24,41s-0.3-0.3-0.3-0.3l0,0c-0.3-0.3-0.3-0.3-0.6-0.3
				c0,0,0,0-0.3-0.3c0-0.3-0.3-0.3-0.3-0.6c0,0,0,0-0.3-0.3c-0.3-0.3-0.3-0.3-0.3-0.3l0,0c-0.3-0.3-0.3-0.3-0.3-0.6c0,0,0,0-0.3-0.3
				c-0.3-0.3-0.3-0.3-0.3-0.3s0,0-0.3-0.3c0,0-0.3,0-0.3-0.3c-3.2-4.5-4.5-10.9-1.9-16"/>
			<path fill="#0A69AD" d="M25.9,20.8c-2.2,3.2-1.9,7.4-0.3,10.9c0.3,0.6,0.6,1.3,1,1.6c0.3,0.3,0.6,1,1.3,1.3
				c0.3,0.3,0.3,0.3,0.3,0.6c0,0,0,0,0.3,0.3c0.3,0,0.3,0.3,0.3,0.3l0,0l0,0c0.3,0.3,0.3,0.3,0.6,0.3c0,0,0,0,0.3,0.3
				c0.3,0.3,0.3,0.3,0.6,0.3l0,0l0.3,0.3c0,0,0,0,0.3,0c0.3,0,0.3,0.3,0.3,0.3l0,0c-0.6-0.3-0.6-0.3-0.3-0.3c0,0,0,0,0.3,0
				c0,0,0.3,0,0.3,0.3l0,0c0.3,0,0.3,0.3,0.6,0.3c0,0,0,0,0.3,0c0.3,0,0.3,0.3,0.3,0.3h0.3c0.3,0,0.3,0.3,0.3,0.3h0.3
				c0.3,0,0.3,0.3,0.6,0.3c11.2,1.9,13.8-7.1,13.8-7.1c-2.2,3.5-6.7,5.1-11.5,3.8c-0.3,0-0.6-0.3-0.6-0.3l-1.3-0.6
				c-0.3,0-0.3-0.3-0.3-0.3s0,0-0.3,0c-0.3,0-0.3-0.3-0.6-0.3c-0.3,0-0.3-0.3-0.3-0.3l0,0c-0.3,0.3-0.3,0.3-0.3,0.3l0,0
				c-0.3,0-0.3-0.3-0.3-0.3s0,0-0.3,0L32,33.3c-0.3,0-0.3,0-0.6-0.3c0,0,0,0-0.3-0.3c-2.2-1.9-3.8-3.8-4.5-6.7
				c-0.6-2.9-0.6-5.8,0.6-8.3"/>
			<path fill="#0A69AD" d="M33.6,17.9c-1.3,1.9-1.3,4.5-0.6,6.4c1,2.2,2.9,3.8,5.1,4.8c0,0,0.3,0,0.3,0.3c0,0,0,0,0.3,0
				c0.3,0,0.3,0,0.3,0.3c6.4,1.3,7.7-3.2,8.3-3.8c-1.3,2.2-3.8,2.6-7.1,1.9c-0.3,0-0.6-0.3-0.6-0.3c-0.3-0.3-0.6-0.3-0.6-0.3
				c-0.6-0.3-1-0.6-1.6-1c-2.9-1.9-4.2-6.1-2.6-9.3 M20.3,70l-0.8,1.7h-0.8l0.1-1.6l-0.5,1.6h-0.8V70l0.1-0.4h0.5l-0.1,1.6l0.7-1.6
				h0.8l-0.1,1.7l0.7-1.7h0.5L20.3,70z M21.6,70.3c0.1-0.3,0.1-0.4-0.1-0.4h-0.3L21,70.7l-0.1,0.9h-0.5l0.4-1.8l0.1-0.3h0.4l0.1,0.1
				c0,0,0.3-0.1,0.5-0.1c0.5,0,0.5,0.4,0.4,0.9L21.6,70.3L21.6,70.3z M23.1,69.2c-0.3,0-0.3-0.1-0.3-0.3c0.1-0.3,0.3-0.3,0.4-0.3
				c0.3,0,0.3,0.1,0.3,0.3C23.5,69.2,23.3,69.2,23.1,69.2L23.1,69.2z M22.8,71.5h-0.5l0.1-0.8l0.1-0.8l-0.3-0.1l0.1-0.4h0.9
				L22.8,71.5L22.8,71.5z M24.9,70l-0.5,0.1l-0.1,0.8c-0.1,0.3-0.1,0.3,0.1,0.3h0.4l-0.1,0.4c0,0-0.3,0.1-0.5,0.1
				c-0.5,0-0.5-0.3-0.5-0.8l0.1-0.8h-0.4l0.1-0.4h0.4l0.1-0.5h0.5l-0.1,0.5h0.5V70L24.9,70z M26.1,70c-0.3,0-0.4,0.1-0.5,0.4
				l0.8-0.1C26.5,70.1,26.4,70,26.1,70z M25.6,70.7c0,0.3,0.1,0.3,0.4,0.3h0.8l-0.1,0.4c0,0-0.5,0.1-0.9,0.1c-0.9,0-0.9-0.5-0.8-1.1
				c0.1-0.5,0.3-1.1,1.2-1.1s0.9,0.5,0.7,1.3H25.6L25.6,70.7z M28.7,71.5h-0.5l0.1-0.8l0.3-1.6L28.3,69l0.1-0.4h0.9L28.7,71.5
				L28.7,71.5z M30.4,70c-0.3,0-0.4,0.1-0.5,0.4l0.8-0.1C30.8,70.1,30.7,70,30.4,70z M29.9,70.7c0,0.3,0.1,0.3,0.4,0.3h0.8L31,71.4
				c0,0-0.5,0.1-0.9,0.1c-0.9,0-0.9-0.5-0.8-1.1c0.1-0.5,0.3-1.1,1.2-1.1c0.9,0,0.9,0.5,0.7,1.3H29.9L29.9,70.7z M33.5,70
				c0,0-0.5,0-0.7,0c-0.4,0-0.4,0.1-0.4,0.3v0.1l1.2,0.1c0,0,0,0.3-0.1,0.5c-0.1,0.3-0.4,0.7-1.1,0.7c-0.3,0-0.8-0.1-0.8-0.1
				l0.1-0.4h0.7c0.3,0,0.4-0.1,0.4-0.1v-0.1l-1.1-0.1c0,0-0.1-0.3,0-0.5c0.1-0.4,0.4-0.7,1.1-0.7c0.3,0,0.8,0.1,0.8,0.1L33.5,70z
				 M35.5,70c0,0-0.5,0-0.7,0c-0.3,0-0.4,0.1-0.4,0.3v0.1l1.2,0.1c0,0,0,0.3-0.1,0.5c-0.1,0.3-0.4,0.7-1.1,0.7
				c-0.3,0-0.8-0.1-0.8-0.1l0.1-0.4h0.7c0.3,0,0.4-0.1,0.4-0.1v-0.1l-1.1-0.1c0,0,0-0.3,0-0.5c0.1-0.4,0.4-0.7,1.1-0.7
				c0.3,0,0.8,0.1,0.8,0.1L35.5,70z M36.1,71.9h-0.4v-0.3c-0.1,0-0.3-0.1-0.1-0.3c0.1-0.3,0.3-0.3,0.4-0.3c0.3,0,0.3,0.1,0.3,0.3
				L36.1,71.9z M38.9,70c-0.3,0-0.4,0.1-0.5,0.5c-0.1,0.3-0.1,0.5,0.3,0.5H39l0.3-1.1H38.9z M39.5,71.3l-0.1,0.3H39l-0.1-0.1
				c0,0-0.4,0.1-0.7,0.1c-0.7,0-0.7-0.5-0.5-1.1c0.1-0.5,0.4-1.1,1.1-1.1c0.3,0,0.5,0.1,0.5,0.1l0.3-0.9h0.5L39.5,71.3L39.5,71.3z
				 M41.3,70c-0.4,0-0.5,0.3-0.5,0.5c-0.1,0.3,0,0.5,0.3,0.5c0.4,0,0.5-0.3,0.5-0.5C41.7,70.2,41.7,70,41.3,70L41.3,70z M40.9,71.7
				c-0.8,0-0.9-0.5-0.8-1.1c0.1-0.5,0.4-1.1,1.3-1.1c0.8,0,0.9,0.5,0.8,1.1C41.9,71,41.8,71.7,40.9,71.7L40.9,71.7z M45.6,71.5
				l0.1-0.8l0.1-0.3C46,70.2,46,70,45.6,70h-0.3c0,0.1,0,0.3-0.1,0.5l-0.3,0.9h-0.5l0.1-0.8l0.1-0.3c0.1-0.3,0.1-0.5-0.3-0.5h-0.3
				l-0.3,1.6h-0.5l0.4-2.1h0.4l0.1,0.1c0,0,0.3-0.1,0.5-0.1c0.1,0,0.3,0.1,0.3,0.1c0.1-0.1,0.4-0.1,0.5-0.1c0.7,0,0.7,0.5,0.5,1.1
				l-0.3,1.1h-0.3V71.5L45.6,71.5z M47.7,70c-0.4,0-0.5,0.3-0.5,0.5c-0.1,0.3,0,0.5,0.3,0.5c0.4,0,0.5-0.3,0.5-0.5
				C48.2,70.2,48.1,70,47.7,70z M47.5,71.7c-0.8,0-0.9-0.5-0.8-1.1c0.1-0.5,0.4-1.1,1.3-1.1c0.8,0,0.9,0.5,0.8,1.1
				C48.5,71,48.2,71.7,47.5,71.7z M50.1,70.3c0.1-0.3,0.1-0.4-0.1-0.4h-0.3l-0.1,0.8l-0.3,0.8h-0.4l0.4-1.8l0.1-0.3h0.4l0.1,0.1
				c0,0,0.3-0.1,0.5-0.1c0.5,0,0.5,0.4,0.4,0.9H50.1z M51.9,70c-0.3,0-0.4,0.1-0.5,0.4l0.8-0.1C52.3,70.1,52.2,70,51.9,70z
				 M51.4,70.7c0,0.3,0.1,0.3,0.4,0.3h0.8l-0.1,0.4c0,0-0.5,0.1-0.9,0.1c-0.9,0-0.9-0.5-0.8-1.1c0.1-0.5,0.3-1.1,1.2-1.1
				c0.9,0,0.9,0.5,0.7,1.3H51.4L51.4,70.7z M53.1,71.7c-0.3,0-0.3-0.1-0.3-0.4C53,71,53.1,71,53.3,71c0.1,0,0.3,0.1,0.3,0.3
				C53.5,71.4,53.4,71.7,53.1,71.7z"/>
		</g>
		<g display="none">
			<path display="inline" fill="#F6DF1B" d="M-3,33.6h52.6v53.7H-3V33.6z"/>
			<path display="inline" fill="#010101" d="M10.8,78.4l4.1-2.5c0.8,1.4,1.5,2.6,3.2,2.6c1.6,0,2.6-0.7,2.6-3.2V58.2h4.9v17.3
				c0,5.3-3,7.6-7.4,7.6C14.2,83,12,80.9,10.8,78.4 M28.2,77.9l4.1-2.4c1.1,1.7,2.4,3,4.9,3c2,0,3.4-1.1,3.4-2.5
				c0-1.7-1.3-2.4-3.6-3.4l-1.2-0.5c-3.6-1.6-5.9-3.6-5.9-7.6c0-3.8,2.8-6.6,7.3-6.6c3.2,0,5.4,1.2,7,4.1l-4,2.5
				c-0.9-1.6-1.7-2.1-3.2-2.1c-1.5,0-2.4,0.9-2.4,2.1c0,1.5,0.9,2.1,3,3l1.2,0.5c4.2,1.8,6.6,3.7,6.6,7.9c0,4.5-3.4,7.1-8.2,7.1
				C32.7,83,29.7,80.8,28.2,77.9"/>
		</g>
		<g display="none">
			<path display="inline" fill="#FFFFFF" d="M-5.5,62.7c0,4.3,4.2,8.4,10.7,10.7c-1.3,6.7-0.3,12.1,3.4,14.2c3.7,2.1,9.2,0.7,14.4-4
				c5.1,4.5,10.3,6.2,13.8,4.1c3.7-2.1,4.9-7.9,3.4-14.9c6.9-2.2,10.7-5.8,10.7-10.1c0-4.2-4.2-7.9-10.7-10.2
				c1.5-7.3,0.3-12.5-3.6-14.8c-3.7-2.1-8.8-0.3-14,4.2c-5.4-4.9-10.4-6.3-14.2-4.1C4.7,40,3.8,45.6,5.1,52.4
				C-1.1,54.8-5.5,58.5-5.5,62.7z"/>
			<path display="inline" fill="#54C1DE" d="M38.9,54.8c-0.5-0.1-1.1-0.3-1.6-0.5c0.1-0.4,0.1-0.8,0.3-1.2
				c1.2-5.9,0.4-10.9-2.4-12.5c-2.6-1.6-6.9,0.1-11.2,3.8c-0.4,0.4-0.8,0.8-1.2,1.2c-0.3-0.3-0.5-0.5-0.8-0.8
				c-4.5-4.1-9-5.8-11.7-4.2C7.6,42.1,6.9,46.6,8,52.4c0.1,0.5,0.3,1.2,0.4,1.7c-0.7,0.1-1.3,0.4-1.8,0.5c-5.4,2-8.8,4.9-8.8,7.9
				c0,3.2,3.7,6.3,9.2,8.2c0.5,0.1,0.9,0.3,1.3,0.4C8.2,71.7,8,72.3,7.9,73c-1.1,5.5-0.3,10.2,2.4,11.6c2.6,1.6,7.1-0.1,11.6-4
				c0.3-0.3,0.7-0.7,1.1-0.9c0.4,0.4,0.9,0.8,1.3,1.2c4.2,3.7,8.4,5.3,11.1,3.7c2.6-1.6,3.6-6.5,2.4-12.3c-0.1-0.4-0.1-0.9-0.3-1.5
				c0.3-0.1,0.7-0.1,0.9-0.3c5.7-2,9.5-5.1,9.5-8.3C47.7,59.7,44.3,56.8,38.9,54.8L38.9,54.8z"/>
			<path display="inline" fill="#FFFFFF" d="M37.6,68.9C37.3,69,37,69,36.8,69.2c-0.7-2.1-1.5-4.2-2.5-6.5c0.9-2.2,1.8-4.4,2.4-6.5
				c0.5,0.1,1.1,0.3,1.4,0.5c4.6,1.6,7.4,4.1,7.4,5.9C45.6,64.7,42.6,67.2,37.6,68.9L37.6,68.9z M35.6,73.1c0.5,2.5,0.5,4.9,0.3,6.7
				c-0.3,1.6-0.9,2.8-1.6,3.2c-1.6,0.9-4.9-0.3-8.6-3.4c-0.4-0.3-0.8-0.8-1.3-1.2c1.3-1.6,2.8-3.4,4.2-5.4c2.4-0.3,4.6-0.5,6.7-1.1
				C35.3,72.2,35.5,72.6,35.6,73.1L35.6,73.1z M14.8,82.9c-1.6,0.5-2.8,0.5-3.6,0.1c-1.6-0.9-2.2-4.5-1.3-9.2
				c0.1-0.5,0.3-1.2,0.4-1.7c2,0.5,4.4,0.8,6.7,0.9c1.3,2,2.8,3.8,4.2,5.4c-0.3,0.3-0.7,0.5-0.9,0.9C18.5,80.9,16.5,82.2,14.8,82.9
				L14.8,82.9z M7.5,68.9c-2.4-0.8-4.5-2-5.8-3.2c-1.2-1.1-1.8-2.1-1.8-3c0-1.8,2.8-4.2,7.3-5.8c0.5-0.1,1.2-0.4,1.7-0.5
				c0.7,2.1,1.5,4.2,2.4,6.5c-0.9,2.2-1.8,4.5-2.5,6.6C8.3,69.2,7.9,69,7.5,68.9z M10,52.2c-0.9-4.9-0.3-8.6,1.3-9.5
				c1.7-0.9,5.4,0.4,9.2,4c0.3,0.3,0.5,0.5,0.8,0.8c-1.5,1.6-2.9,3.4-4.2,5.3c-2.4,0.3-4.6,0.5-6.7,1.1C10.1,53.2,10.1,52.7,10,52.2
				L10,52.2z M31.5,57.6c-0.5-0.8-0.9-1.7-1.6-2.5c1.6,0.3,3.2,0.5,4.6,0.8c-0.4,1.5-0.9,2.9-1.6,4.4C32.6,59.4,32,58.5,31.5,57.6
				L31.5,57.6z M22.8,48.9c0.9,1.1,2,2.2,3,3.6c-2-0.1-4-0.1-5.9,0C20.8,51.1,21.7,49.9,22.8,48.9z M14,57.6
				c-0.5,0.9-0.9,1.7-1.5,2.6c-0.7-1.5-1.2-2.9-1.6-4.5c1.5-0.3,3-0.5,4.5-0.8C14.9,55.8,14.4,56.8,14,57.6z M15.6,70.6
				c-1.6-0.1-3.2-0.4-4.6-0.8c0.4-1.5,0.9-2.9,1.6-4.5c0.5,0.9,0.9,1.8,1.5,2.6C14.4,68.9,15,69.7,15.6,70.6z M22.8,76.8
				c-1.1-1.2-2-2.4-3-3.7c0.9,0,2,0.1,2.9,0.1c1.1,0,2,0,3-0.1C24.8,74.4,23.9,75.8,22.8,76.8z M33,65.2c0.7,1.6,1.2,3,1.7,4.5
				c-1.5,0.3-3,0.5-4.6,0.8c0.5-0.8,1.1-1.7,1.6-2.6C32,67,32.6,66.1,33,65.2L33,65.2z M29.7,66.9c-0.7,1.3-1.6,2.6-2.4,4
				c-1.5,0.1-3,0.1-4.6,0.1c-1.6,0-3-0.1-4.5-0.1c-0.9-1.3-1.7-2.6-2.4-4c-0.8-1.3-1.5-2.8-2.1-4.1c0.7-1.4,1.3-2.8,2.1-4.1l0,0
				c0.7-1.3,1.6-2.6,2.4-4c1.5-0.1,3-0.1,4.6-0.1c1.6,0,3,0.1,4.6,0.1c0.9,1.3,1.6,2.5,2.4,4c0.8,1.3,1.5,2.8,2.2,4.1
				C31.2,64.1,30.6,65.5,29.7,66.9L29.7,66.9z M34.1,42.5c1.7,0.9,2.4,4.9,1.3,10.2c-0.1,0.3-0.1,0.7-0.3,0.9
				c-2.1-0.5-4.4-0.8-6.7-1.1c-1.3-2-2.8-3.8-4.2-5.3c0.4-0.3,0.8-0.8,1.2-1.1C29.1,42.9,32.6,41.6,34.1,42.5L34.1,42.5z"/>
			<path display="inline" fill="#54C1DE" d="M22.8,58.2c2.5,0,4.5,2.1,4.5,4.5c0,2.5-2,4.5-4.5,4.5s-4.5-2.1-4.5-4.5
				C18.3,60.2,20.3,58.2,22.8,58.2"/>
		</g>
		<g display="none">
			<path display="inline" fill="#FEC24C" d="M-2.5,83.8l0.4-0.7l20.4-39.6l0.1-0.4l-9-17.3c-0.7-1.5-2.9-1.1-3.2,0.5L-2.5,83.8z"/>
			<g display="inline">
				<path id="a" fill="#FAA71C" d="M-2.2,83.3l0.3-0.7l20.2-39.2l-9-17.3c-0.7-1.5-2.6-1.1-2.9,0.5L-2.2,83.3z"/>
			</g>
			<g display="inline">
				<path id="a_13_" fill="#010101" d="M-2.2,83.3l0.3-0.7l20.2-39.2l-9-17.3c-0.7-1.5-2.6-1.1-2.9,0.5L-2.2,83.3z"/>
			</g>
			<path display="inline" fill="#F3BD63" d="M25,56.1l6.7-7L25,36.1c-0.7-1.2-2.4-1.2-3,0l-3.7,7v0.5L25,56.1L25,56.1z"/>
			<g display="inline">
				<path id="c" fill="#FAA51A" d="M24.9,55.8l6.6-6.9l-6.6-12.7c-0.7-1.2-2.1-1.3-2.8-0.1l-3.7,7.1l-0.1,0.3L24.9,55.8z"/>
			</g>
			<g display="inline">
				<path id="c_13_" fill="#010101" d="M24.9,55.8l6.6-6.9l-6.6-12.7c-0.7-1.2-2.1-1.3-2.8-0.1l-3.7,7.1l-0.1,0.3L24.9,55.8z"/>
			</g>
			<path display="inline" fill="#F58220" d="M-2.5,83.8l0.1-0.1l0.7-0.3l26.2-26.6l0.3-0.9l-6.6-12.8L-2.5,83.8z"/>
			<path display="inline" fill="#FCE069" d="M25.8,97.1l23.7-13.4l-6.7-42.5c-0.3-1.3-1.7-1.8-2.8-0.9L-2.5,83.8L21,97.2
				C22.5,98,24.4,98,25.8,97.1"/>
			<path display="inline" fill="#FCCB3F" d="M49.4,83.5l-6.7-42.2c-0.3-1.3-1.6-1.8-2.5-0.9L-2.2,83.7L21.1,97
				c1.5,0.8,3.3,0.8,4.7,0L49.4,83.5L49.4,83.5z"/>
			<path display="inline" fill="#EEAC38" d="M25.8,96.7c-1.5,0.8-3.3,0.8-4.7,0L-2.2,83.5l-0.1,0.1l23.5,13.4c1.5,0.8,3.3,0.8,4.7,0
				l23.7-13.4l-0.1-0.4L25.8,96.7L25.8,96.7z"/>
		</g>
	</g>
</g>
</svg>
