
<svg  version="1.1" id="Layer_1" xmlns="http://www.w3.org/2000/svg" xmlns:xlink="http://www.w3.org/1999/xlink" x="0px" y="0px"
	 width="878.1px" height="157.3px" viewBox="0 0 878.1 157.3" style="enable-background:new 0 0 878.1 157.3;" xml:space="preserve"
	>
<style type="text/css">
<!-- <![CDATA[
	.st0{fill:none;stroke:#B4AAC5;stroke-width:9;stroke-miterlimit:10;}
]]> -->
</style>
<g>
	<path class="st0" d="M49.6,98.5c3.7,0,8.1-0.9,13.3-2.7v20c-3.7,1.6-7.2,2.7-10.6,3.4c-3.4,0.7-7.3,1-11.8,1
		c-9.2,0-15.9-2.3-20-6.8c-4.1-4.5-6.1-11.5-6.1-20.8V59.8H4.8V48.6L17,39.9l7.1-16.7h18v16h19.5v20.6H42.1v31
		C42.1,95.9,44.6,98.5,49.6,98.5z"/>
	<path class="st0" d="M115.2,120.2c-13.3,0-23.6-3.5-30.9-10.6c-7.3-7.1-11-17.1-11-30.1c0-13.5,3.4-23.8,10.2-31
		c6.8-7.2,16.5-10.8,29.1-10.8c12,0,21.3,3.1,27.8,9.4s9.8,15.3,9.8,27v12.2h-49.1c0.2,4.5,1.8,7.9,4.9,10.5
		c3.1,2.5,7.3,3.8,12.6,3.8c4.8,0,9.3-0.5,13.3-1.4c4.1-0.9,8.4-2.5,13.2-4.7v19.8c-4.3,2.2-8.8,3.7-13.4,4.6
		C127.1,119.8,121.6,120.2,115.2,120.2z M113.6,56.4c-3.2,0-5.9,1-8.1,3.1s-3.5,5.2-3.8,9.6h23.6c-0.1-3.8-1.2-6.9-3.3-9.2
		C119.9,57.6,117.1,56.4,113.6,56.4z"/>
	<path class="st0" d="M213.9,37.7c2.4,0,4.7,0.2,6.8,0.6l1.5,0.3l-2.5,25.9c-2.2-0.6-5.4-0.8-9.4-0.8c-6,0-10.4,1.4-13.1,4.1
		c-2.7,2.7-4.1,6.7-4.1,11.8v39.2h-27.5V39.1h20.5l4.3,12.7h1.3c2.3-4.2,5.5-7.6,9.6-10.2C205.6,39,209.7,37.7,213.9,37.7z"/>
	<path class="st0" d="M281.4,37.7c2.4,0,4.7,0.2,6.8,0.6l1.5,0.3l-2.5,25.9c-2.2-0.6-5.4-0.8-9.4-0.8c-6,0-10.4,1.4-13.1,4.1
		c-2.7,2.7-4.1,6.7-4.1,11.8v39.2h-27.5V39.1h20.5l4.3,12.7h1.3c2.3-4.2,5.5-7.6,9.6-10.2C273.1,39,277.3,37.7,281.4,37.7z"/>
	<path class="st0" d="M300.4,19.3c0-4.1,1.1-7.2,3.4-9.2c2.3-2,6-3,11.1-3c5.1,0,8.8,1,11.2,3.1c2.3,2.1,3.5,5.1,3.5,9.1
		c0,8.1-4.9,12.1-14.7,12.1C305.2,31.4,300.4,27.4,300.4,19.3z M328.6,118.8h-27.5V39.1h27.5V118.8z"/>
	<path class="st0" d="M433,120.2c-4,0-7.6-0.7-10.8-2c-3.2-1.3-6.4-3.7-9.5-7.2h-1.3c0.8,5.6,1.3,9,1.3,10.4v32h-27.5V39.1h22.4
		l3.9,10.1h1.3c5.1-7.7,12.2-11.5,21.2-11.5c8.8,0,15.7,3.7,20.7,11c5,7.3,7.5,17.3,7.5,30.1c0,12.8-2.6,23-7.8,30.3
		C449,116.5,441.9,120.2,433,120.2z M423.8,59.3c-4,0-6.9,1.4-8.5,4.3s-2.5,7.2-2.6,12.8v2.2c0,6.8,0.9,11.8,2.7,14.8
		c1.8,3,4.7,4.6,8.6,4.6c3.5,0,6.1-1.5,7.7-4.5c1.6-3,2.4-8,2.4-15c0-6.8-0.8-11.8-2.4-14.7C430.1,60.8,427.5,59.3,423.8,59.3z"/>
	<path class="st0" d="M516.2,120.2c-13.3,0-23.6-3.5-30.9-10.6c-7.3-7.1-11-17.1-11-30.1c0-13.5,3.4-23.8,10.2-31
		c6.8-7.2,16.5-10.8,29.1-10.8c12,0,21.3,3.1,27.8,9.4s9.8,15.3,9.8,27v12.2h-49.1c0.2,4.5,1.8,7.9,4.9,10.5
		c3.1,2.5,7.3,3.8,12.6,3.8c4.8,0,9.3-0.5,13.3-1.4c4.1-0.9,8.4-2.5,13.2-4.7v19.8c-4.3,2.2-8.8,3.7-13.4,4.6
		C528.1,119.8,522.6,120.2,516.2,120.2z M514.6,56.4c-3.2,0-5.9,1-8.1,3.1s-3.5,5.2-3.8,9.6h23.6c-0.1-3.8-1.2-6.9-3.3-9.2
		C520.9,57.6,518.1,56.4,514.6,56.4z"/>
	<path class="st0" d="M614.9,37.7c2.4,0,4.7,0.2,6.8,0.6l1.5,0.3l-2.5,25.9c-2.2-0.6-5.4-0.8-9.4-0.8c-6,0-10.4,1.4-13.1,4.1
		c-2.7,2.7-4.1,6.7-4.1,11.8v39.2h-27.5V39.1h20.5l4.3,12.7h1.3c2.3-4.2,5.5-7.6,9.6-10.2C606.6,39,610.7,37.7,614.9,37.7z"/>
	<path class="st0" d="M695.9,94.3c0,8.5-2.9,15-8.7,19.3c-5.8,4.4-14.2,6.5-25,6.5c-5.9,0-11-0.3-15.4-0.9s-8.8-1.8-13.4-3.5v-22
		c4.3,1.9,8.9,3.4,14,4.6c5.1,1.2,9.6,1.8,13.6,1.8c6,0,8.9-1.4,8.9-4.1c0-1.4-0.8-2.7-2.5-3.8c-1.7-1.1-6.5-3.2-14.5-6.4
		c-7.3-3-12.4-6.4-15.3-10.2c-2.9-3.8-4.4-8.7-4.4-14.5c0-7.4,2.9-13.2,8.6-17.3c5.7-4.1,13.8-6.2,24.3-6.2c5.2,0,10.2,0.6,14.8,1.7
		c4.6,1.1,9.4,2.8,14.4,5l-7.5,17.7c-3.7-1.6-7.5-3-11.6-4.2c-4.1-1.1-7.4-1.7-10-1.7c-4.5,0-6.8,1.1-6.8,3.3c0,1.4,0.8,2.5,2.4,3.5
		c1.6,1,6.1,2.9,13.6,5.9c5.6,2.3,9.7,4.5,12.5,6.8c2.7,2.2,4.8,4.8,6,7.8C695.2,86.5,695.9,90.1,695.9,94.3z"/>
	<path class="st0" d="M763.1,118.8l-5.3-10.5h-0.6c-3.7,4.6-7.5,7.7-11.3,9.4c-3.8,1.7-8.8,2.5-14.9,2.5c-7.5,0-13.4-2.2-17.7-6.8
		c-4.3-4.5-6.5-10.8-6.5-19c0-8.5,3-14.8,8.9-18.9s14.5-6.5,25.7-7l13.3-0.4V67c0-6.6-3.2-9.8-9.7-9.8c-5.8,0-13.2,2-22.1,5.9
		l-7.9-18.1c9.3-4.8,21-7.2,35.2-7.2c10.2,0,18.1,2.5,23.7,7.6c5.6,5.1,8.4,12.1,8.4,21.2v52.2H763.1z M742.7,100.8
		c3.3,0,6.2-1.1,8.5-3.2c2.4-2.1,3.6-4.9,3.6-8.2v-6.2l-6.3,0.3c-9,0.3-13.6,3.7-13.6,10C734.9,98.4,737.5,100.8,742.7,100.8z"/>
	<path class="st0" d="M825.6,120.2c-5.7,0-10.6-1.6-14.9-4.9c-4.2-3.2-7.5-8-9.8-14.3c-2.3-6.3-3.5-13.6-3.5-22
		c0-12.9,2.6-23.1,7.8-30.4s12.4-11,21.4-11c4.5,0,8.4,0.9,11.7,2.7c3.4,1.8,6.4,4.8,9.2,9h0.6c-0.9-6.2-1.3-12.5-1.3-18.7V9.4h27.7
		v109.4h-20.7l-5.9-10.1h-1.1C842,116.4,835,120.2,825.6,120.2z M836.8,98.5c4.4,0,7.5-1.4,9.3-4.1c1.8-2.8,2.8-7,2.9-12.8v-2.2
		c0-7-1-12-3-15c-2-3-5.2-4.5-9.5-4.5c-3.6,0-6.4,1.7-8.4,5.1c-2,3.4-3,8.2-3,14.5c0,6.2,1,10.9,3,14.1
		C830.2,96.9,833.1,98.5,836.8,98.5z"/>
</g>
</svg>
