<?xml version="1.0" encoding="utf-8"?>
<!-- Generator: Adobe Illustrator 16.0.4, SVG Export Plug-In . SVG Version: 6.00 Build 0)  -->
<!DOCTYPE svg PUBLIC "-//W3C//DTD SVG 1.1//EN" "http://www.w3.org/Graphics/SVG/1.1/DTD/svg11.dtd">
<svg version="1.1" id="Layer_1" xmlns="http://www.w3.org/2000/svg" xmlns:xlink="http://www.w3.org/1999/xlink" x="0px" y="0px"
	 width="100px" height="100px" viewBox="0 0 100 100" enable-background="new 0 0 100 100" xml:space="preserve">
<g id="XMLID_3209_">
	<path id="XMLID_3216_" fill="#8EC746" d="M11,22.3c-0.4,0.4-0.7,0.8-1,1.3C7,26.2,4.7,31.9,6.1,39c5.8,30.5,31.5,53.7,62.4,56.4
		c0.7,0.1,1.3,0.1,2,0.1c3.5,0,6.9-0.9,9.6-2.5c1.3-0.7,2.4-1.7,3.4-2.8l2.7-2.9c5.2-5.7,4.7-14.6-1-19.8l-4.5-4
		c-2.6-2.3-5.9-3.6-9.4-3.6c-3.9,0-7.7,1.7-10.4,4.6l-2.7,2.9c-1,1.1-1.9,2.4-2.5,3.8c-10.6-4.4-19.2-12.4-24.6-22.5
		c1.9-0.8,3.7-2,5.1-3.6l2.7-2.9c2.5-2.8,3.8-6.4,3.6-10.1c-0.2-3.7-1.8-7.2-4.6-9.7l-4.5-4c-2.6-2.3-5.9-3.6-9.4-3.6
		c-4,0-7.7,1.7-10.4,4.6L11,22.3z M16.3,21.8c2-2.2,4.8-3.4,7.7-3.4c2.6,0,5.1,1,7,2.7l4.5,4c2.1,1.9,3.3,4.4,3.4,7.2
		c0.1,2.8-0.8,5.4-2.7,7.5l-2.7,2.9l0,0c-1.3,1.4-2.9,2.4-4.7,3L28,46c-0.5,0.2-0.9,0.5-1.1,1s-0.2,1,0,1.5l0.4,0.8
		C33.2,61,43.2,70.2,55.4,75l0.7,0.3c0.5,0.2,1,0.2,1.4,0c0.4-0.2,0.8-0.6,0.9-1.1l0.2-0.7c0.5-1.4,1.2-2.6,2.1-3.7l2.7-2.9
		c2-2.2,4.8-3.4,7.7-3.4c2.6,0,5.1,1,7,2.7l4.5,4c4.2,3.8,4.6,10.4,0.7,14.7l-2.7,2.9c-0.7,0.8-1.6,1.5-2.6,2.1
		c-2.5,1.6-5.9,2.2-9.4,1.9C39.5,89.2,15.1,67.2,9.6,38.3c-1.2-6.1,1-10.5,2.8-12c0.1,0,0.1-0.1,0.2-0.2l0.1-0.1
		c0.1-0.1,0.1-0.1,0.1-0.2c0.3-0.4,0.5-0.7,0.8-1L16.3,21.8z"/>
	<path id="XMLID_3213_" fill="#8EC746" d="M95.3,47.8C95.3,24.2,76.2,5,52.6,5c-2.1,0-3.7,1.7-3.7,3.7c0,2.1,1.7,3.7,3.7,3.7
		c19.4,0,35.2,15.8,35.2,35.2c0,2.1,1.7,3.7,3.7,3.7S95.3,49.8,95.3,47.8z M91.6,49.7c-1.1,0-1.9-0.9-1.9-1.9c0-20.4-16.6-37-37-37
		c-1.1,0-1.9-0.9-1.9-1.9c0-1.1,0.9-1.9,1.9-1.9c22.6,0,40.9,18.4,40.9,40.9C93.5,48.8,92.6,49.7,91.6,49.7z"/>
	<path id="XMLID_3210_" fill="#8EC746" d="M52.1,18.9c-2.1,0-3.7,1.7-3.7,3.7c0,2.1,1.7,3.7,3.7,3.7c12,0,21.8,9.8,21.8,21.8
		c0,2.1,1.7,3.7,3.7,3.7c2.1,0,3.7-1.7,3.7-3.7C81.4,32.1,68.3,18.9,52.1,18.9z M77.7,50.2c-1.1,0-1.9-0.9-1.9-1.9
		c0-13-10.6-23.6-23.6-23.6c-1.1,0-1.9-0.9-1.9-1.9c0-1.1,0.9-1.9,1.9-1.9c15.1,0,27.5,12.3,27.5,27.5
		C79.6,49.3,78.7,50.2,77.7,50.2z"/>
</g>
</svg>
