<?xml version="1.0" encoding="utf-8"?>
<!-- Generator: Adobe Illustrator 16.0.4, SVG Export Plug-In . SVG Version: 6.00 Build 0)  -->
<!DOCTYPE svg PUBLIC "-//W3C//DTD SVG 1.1//EN" "http://www.w3.org/Graphics/SVG/1.1/DTD/svg11.dtd">
<svg version="1.1" id="Layer_1" xmlns="http://www.w3.org/2000/svg" xmlns:xlink="http://www.w3.org/1999/xlink" x="0px" y="0px"
	 width="66px" height="100px" viewBox="0 0 66 100" enable-background="new 0 0 66 100" xml:space="preserve">
<g>
	<g display="none">
		<g display="inline">
			<path fill="#E44F26" d="M10.3,85.1L5,25.6h58.3L58,85.1l-23.9,6.6L10.3,85.1z"/>
			<path fill="#F1662A" d="M34.2,86.7l19.3-5.3l4.5-50.8H34.2V86.7z"/>
			<path fill="#EBEBEB" d="M34.2,52.5h-9.6l-0.6-7.4h10.3v-7.2H15.9l0.2,1.9l1.8,20.1h16.2V52.5z M34.2,71.5L34.2,71.5L26,69.3
				l-0.6-5.8h-7.3l1,11.5l15,4l0,0V71.5z"/>
			<path fill="#010101" d="M10.5,9.5h3.7v3.7h3.4V9.5h3.7v11.1h-3.7v-3.7h-3.4v3.7h-3.7V9.5z M26.2,13.2h-3.3V9.5h10.2v3.7h-3.3v7.4
				h-3.7L26.2,13.2L26.2,13.2z M34.7,9.5h3.9l2.4,3.9l2.4-3.9h3.9v11.1h-3.7v-5.5L40.9,19h-0.1l-2.6-3.9v5.5h-3.7L34.7,9.5L34.7,9.5
				z M49,9.5h3.7v7.4h5.2v3.7H49V9.5z"/>
			<path fill="#FFFFFF" d="M34.2,52.5v7.2h9l-0.8,9.5l-8.2,2.3v7.6l15-4.1l0.1-1.2l1.7-19.2l0.2-1.9h-1.9h-15V52.5z M34.2,37.8V45
				h17.6l0.2-1.7l0.4-3.7l0.2-1.9H34.2z"/>
		</g>
	</g>
	<g display="none">
		<path display="inline" fill="none" d="M-14.7,2.3H82V99h-96.6V2.3z"/>
		<path display="inline" fill="#2363AF" d="M58.1,86.3l-24.4,6.6L9.3,86.3L3.7,25.2h60.2L58.1,86.3z"/>
		<path display="inline" fill="#3D9CD6" d="M33.7,30v57.5h0.1l19.8-5.3L58.2,30H33.7L33.7,30z"/>
		<path display="inline" fill="#010101" d="M19.8,16.2v-3.7h5.3V8.6h-9.4v11.3h9.3v-3.7H19.8z M34.7,12.5h3.7V8.6h-9.3v3.9
			c1.3,1.3,1.9,1.8,3.7,3.7c-1,0-3.7,0-3.7,0v3.7h9.3v-3.7L34.7,12.5L34.7,12.5z M47.8,12.5h3.7V8.6h-9.3v3.9
			c1.3,1.3,1.9,1.8,3.7,3.7c-1,0-3.7,0-3.7,0v3.7h9.4v-3.7L47.8,12.5L47.8,12.5z"/>
		<path display="inline" fill="#FFFFFF" d="M33.7,45.4l-17.5,7.3l0.6,7.2l16.9-7.2l18-7.7l0.7-7.3L33.7,45.4L33.7,45.4z"/>
		
			<linearGradient id="SVGID_1_" gradientUnits="userSpaceOnUse" x1="-926.4971" y1="1518.2178" x2="-926.4971" y2="1521.3418" gradientTransform="matrix(4.6418 0 0 -4.6418 4325.5 7107.1328)">
			<stop  offset="0.387" style="stop-color:#D2D3D4;stop-opacity:0"/>
			<stop  offset="1" style="stop-color:#D2D3D4"/>
		</linearGradient>
		<path display="inline" fill="url(#SVGID_1_)" d="M16.2,52.6l0.6,7.2l16.9-7.2v-7.3L16.2,52.6z"/>
		
			<linearGradient id="SVGID_2_" gradientUnits="userSpaceOnUse" x1="-922.583" y1="1519.7754" x2="-922.583" y2="1523.0229" gradientTransform="matrix(4.6418 0 0 -4.6418 4325.5 7107.1328)">
			<stop  offset="0.387" style="stop-color:#D2D3D4;stop-opacity:0"/>
			<stop  offset="1" style="stop-color:#D2D3D4"/>
		</linearGradient>
		<path display="inline" fill="url(#SVGID_2_)" d="M52.4,37.6l-18.7,7.8v7.3l18-7.7L52.4,37.6z"/>
		
			<linearGradient id="SVGID_3_" gradientUnits="userSpaceOnUse" x1="-928.3677" y1="1516.8242" x2="-920.864" y2="1516.8242" gradientTransform="matrix(4.6418 0 0 -4.6418 4325.5 7107.1328)">
			<stop  offset="0" style="stop-color:#E8E7E5"/>
			<stop  offset="1" style="stop-color:#FFFFFF"/>
		</linearGradient>
		<path display="inline" fill="url(#SVGID_3_)" d="M16.2,52.6l0.6,7.2l26,0.1l-0.6,9.6L33.6,72l-8.2-2.1l-0.5-6h-7.6l1,11.6
			l15.4,4.6l15.3-4.5l2-22.9L16.2,52.6L16.2,52.6z"/>
		<path display="inline" opacity="5.000000e-02" fill="#010101" enable-background="new    " d="M33.7,52.6H16.2l0.6,7.2L33.6,60
			L33.7,52.6L33.7,52.6z M33.7,72L33.7,72l-8.3-2L25,64h-7.6l1,11.6l15.4,4.6L33.7,72L33.7,72z"/>
		
			<linearGradient id="SVGID_4_" gradientUnits="userSpaceOnUse" x1="-928.7119" y1="1522.2305" x2="-920.5669" y2="1522.2305" gradientTransform="matrix(4.6418 0 0 -4.6418 4325.5 7107.1328)">
			<stop  offset="0" style="stop-color:#E8E7E5"/>
			<stop  offset="1" style="stop-color:#FFFFFF"/>
		</linearGradient>
		<path display="inline" fill="url(#SVGID_4_)" d="M14.6,37.6h37.8l-0.7,7.3H15.5L14.6,37.6L14.6,37.6z"/>
		<path display="inline" opacity="5.000000e-02" fill="#010101" enable-background="new    " d="M33.7,37.6H14.6l0.9,7.3h18.2V37.6
			L33.7,37.6z"/>
	</g>
	<g display="none">
		<path display="inline" fill="#CF659B" d="M55.1,52.1c-2.1,0-3.9,0.6-5.4,1.3c-0.5-1.1-1.1-2.1-1.2-2.8c-0.1-0.8-0.3-1.4-0.1-2.4
			c0.1-1,0.7-2.4,0.7-2.6c0-0.1-0.1-0.6-1.3-0.6c-1.2,0-2.2,0.3-2.4,0.6c-0.1,0.3-0.4,1-0.5,1.7c-0.2,1.1-2.4,5-3.7,7
			c-0.4-0.8-0.7-1.5-0.8-2c-0.1-0.8-0.3-1.4-0.1-2.4c0.1-1,0.7-2.4,0.7-2.6c0-0.1-0.1-0.6-1.3-0.6s-2.2,0.3-2.4,0.6
			c-0.2,0.3-0.4,1.2-0.6,1.9c-0.3,0.7-3.1,7.2-3.9,8.9c-0.4,0.8-0.7,1.6-1,2c-0.3,0.5,0,0,0,0.1c-0.2,0.4-0.4,0.6-0.4,0.6l0,0
			c-0.2,0.3-0.4,0.6-0.5,0.6c-0.1,0-0.2-0.7,0-1.8c0.5-2.2,1.5-5.8,1.5-5.9s0.2-0.6-0.6-1c-0.8-0.3-1.2,0.2-1.2,0.2L30.7,53
			c0,0,0.9-3.9-1.8-3.9c-1.7,0-4.1,1.8-5.2,3.6c-0.7,0.4-2.3,1.2-4,2.2c-0.6,0.4-1.3,0.7-1.9,1.1l-0.1-0.2
			c-3.3-3.6-9.5-6.1-9.3-10.8c0.1-1.7,0.7-6.3,11.8-11.8c9.1-4.5,16.4-3.3,17.7-0.6c1.8,3.9-3.9,11.3-13.4,12.4
			c-3.6,0.4-5.5-1-6-1.5c-0.5-0.6-0.6-0.6-0.7-0.5c-0.3,0.2-0.1,0.6,0,0.9c0.3,0.7,1.5,2,3.4,2.7c1.7,0.6,6,0.9,11.1-1.1
			c5.7-2.2,10.2-8.4,8.9-13.6c-1.4-5.2-10-7-18.3-4c-4.9,1.7-10.2,4.5-14,8.1c-4.5,4.2-5.2,7.9-5,9.5C5,50.9,12.5,54.5,15.5,57
			c-0.2,0.1-0.3,0.2-0.5,0.3c-1.5,0.7-7.2,3.8-8.7,7c-1.6,3.6,0.3,6.1,1.6,6.5c3.9,1.1,7.9-0.8,10-4c2.1-3.2,1.9-7.3,0.9-9.3v-0.1
			l1.2-0.7c0.7-0.5,1.6-0.9,2.2-1.2c-0.4,1-0.6,2.2-0.7,3.9c-0.2,2,0.6,4.7,1.7,5.8c0.5,0.5,1.1,0.5,1.5,0.5c1.3,0,1.8-1.1,2.5-2.3
			c0.8-1.6,1.5-3.3,1.5-3.3s-0.9,4.9,1.5,4.9c0.9,0,1.7-1.1,2.1-1.7l0,0c0,0,0,0,0.1-0.1c0.1-0.1,0.1-0.2,0.2-0.2l0,0
			c0.4-0.6,1.1-2,2.3-4.3c1.5-2.9,2.9-6.6,2.9-6.6s0.2,0.9,0.6,2.4c0.3,0.9,0.8,1.8,1.3,2.8c-0.4,0.5-0.5,0.7-0.5,0.7l0,0
			c-0.3,0.4-0.5,0.7-0.9,1.2c-1.2,1.4-2.6,3-2.8,3.5c-0.2,0.6-0.2,0.9,0.3,1.3c0.3,0.3,0.9,0.3,1.5,0.3c1.1-0.1,1.8-0.4,2.2-0.5
			c0.5-0.2,1.3-0.6,1.9-1c1.2-0.8,1.8-2.1,1.8-3.7c0-0.9-0.4-1.7-0.6-2.7c0.1-0.2,0.2-0.3,0.3-0.5c1.8-2.7,3.2-5.6,3.2-5.6
			s0.2,0.9,0.5,2.4c0.2,0.7,0.6,1.6,1.1,2.4c-1.7,1.4-2.8,3-3.2,4.1c-0.6,2-0.2,2.8,0.8,3.1c0.5,0.1,1.1-0.1,1.6-0.4
			c0.6-0.2,1.4-0.6,2-1c1.2-0.8,2.3-2,2.2-3.7c0-0.7-0.3-1.5-0.5-2.2c1.5-0.6,3.4-0.9,5.8-0.6c5.1,0.6,6.2,3.9,6,5.2
			c-0.2,1.4-1.3,2.1-1.7,2.3c-0.4,0.2-0.5,0.3-0.5,0.5c0.1,0.3,0.2,0.3,0.6,0.2c0.5-0.1,2.8-1.1,2.8-3.6
			C63.5,55.5,60.5,52,55.1,52.1L55.1,52.1z M15.2,65.5c-1.7,1.8-4.1,2.6-5.1,2c-1.1-0.6-0.6-3.4,1.5-5.4c1.3-1.2,2.9-2.3,4-3
			c0.3-0.2,0.6-0.4,1.1-0.6c0.1,0,0.1-0.1,0.1-0.1c0.1-0.1,0.2-0.1,0.3-0.2C17.7,61.1,17,63.5,15.2,65.5L15.2,65.5z M27.6,57
			c-0.6,1.5-1.8,5.2-2.6,5c-0.6-0.2-1-3-0.1-5.8c0.5-1.4,1.5-3.1,2-3.8c0.9-1,1.9-1.4,2.2-1C29.5,52.1,28,56.1,27.6,57z M38,62
			c-0.3,0.1-0.5,0.2-0.6,0.2s0.1-0.2,0.1-0.2s1.3-1.4,1.8-2c0.3-0.4,0.6-0.8,1-1.3v0.2C40.3,60.3,38.7,61.5,38,62L38,62z M45.9,60.1
			c-0.2-0.2-0.2-0.6,0.5-1.9c0.3-0.6,0.8-1.5,1.7-2.3c0.1,0.4,0.2,0.6,0.2,1C48.4,59,46.8,59.8,45.9,60.1z"/>
	</g>
	<g display="none">
		<path display="inline" fill="#131B28" d="M28.5,49.5L28.5,49.5l-0.5,2L28.5,49.5z M31.4,53.8h-0.6H31.4z M31.2,56.8L31.2,56.8
			h-3.8H31.2z M32,53.8h-0.6H32z M31.6,56.6l0.6-2.5L31.6,56.6L31.6,56.6z M45.3,45.2l-1.2,5.7L45.3,45.2z M42.1,45.2l-0.9,4.2
			L42.1,45.2L42.1,45.2z"/>
		<path display="inline" fill="#131B28" d="M45.1,44.9h-2.6c-0.2,0-0.3,0.1-0.3,0.3l-0.9,4.2l-0.9,4.2c0,0.2-0.2,0.3-0.3,0.3h-1.8
			c-1.8,0-1.6-1.3-1.2-2.9v-0.1v-0.2l0,0l0.1-0.5l0.1-0.5c0-0.2,0.1-0.4,0.1-0.5l0.5-2l0.5-2c0-0.2-0.1-0.3-0.2-0.3h-2.7
			c-0.2,0-0.3,0.1-0.3,0.3L34.6,48l-0.6,2.8l0,0L34,51.1c-0.6,3-0.5,5.9,3.1,6c0.1,0,0.1,0,0.1,0h5.6c0.2,0,0.3-0.1,0.3-0.3l1.2-5.7
			l1.2-5.7C45.4,45,45.3,44.9,45.1,44.9z M55.4,53.9c0.2,0,0.3,0.1,0.2,0.3l-0.3,1.2 M55.1,56.7l0.3-1.2L55.1,56.7L55.1,56.7z
			 M54.8,56.9L54.8,56.9c-0.7,0-3,0-4.8,0C52.1,56.9,54.8,56.9,54.8,56.9z M48.5,52.3c0-0.1,0.2-0.4,0.3-0.4h-0.4
			C48.3,53.4,48.5,52.3,48.5,52.3z"/>
		<path display="inline" fill="#131B28" d="M50.2,56.9L50.2,56.9L50.2,56.9z M55.4,53.9c0.2,0,0.3,0.1,0.2,0.3l-0.3,1.2v0.2
			 M51.5,56.9L51.5,56.9L51.5,56.9z M50.9,56.9L50.9,56.9L50.9,56.9z M50.7,56.9C50.7,56.9,50.6,56.9,50.7,56.9
			C50.6,56.9,50.7,56.9,50.7,56.9z M50.5,56.9L50.5,56.9L50.5,56.9z M50.8,56.9L50.8,56.9L50.8,56.9z M51.5,56.9c-0.2,0-0.5,0-0.6,0
			C51,56.9,51.2,56.9,51.5,56.9z M55.1,56.7l0.2-1L55.1,56.7L55.1,56.7z M50.6,56.9L50.6,56.9L50.6,56.9z M50.2,56.9H50H50.2z
			 M50.4,56.9h-0.2H50.4z M12.6,52.4l0.4-1.7l-0.5,2L12,54.8l0.4-1.8C12.5,52.8,12.5,52.5,12.6,52.4L12.6,52.4z M17.4,44.9h-2.8
			c-0.2,0-0.3,0.1-0.3,0.3L14,46.3l-0.3,1.2c0,0.2,0.1,0.3,0.2,0.3h2.8c0.2,0,0.3-0.1,0.3-0.3l0.3-1.2l0.3-1.2l0,0
			C17.6,45,17.5,44.9,17.4,44.9L17.4,44.9z M16.7,48.9L16.7,48.9l-0.8,3.9L16.7,48.9L16.7,48.9z M8.6,61.6c0,0,1.5,0,2.4,0
			C10.2,61.6,9,61.6,8.6,61.6L8.6,61.6z M13.4,48.9L13,50.6L13.4,48.9z"/>
		<path display="inline" fill="#131B28" d="M16.5,48.6h-2.8c-0.2,0-0.3,0.1-0.3,0.3L13,50.6l-0.4,1.7c0,0.2-0.1,0.4-0.1,0.6
			l-0.4,1.8l-0.4,1.8c0,0.2-0.1,0.4-0.2,0.5c0,0-0.6,1.6-1.5,1.6h-0.1c-0.5,0-0.7,0-0.7,0l0,0c-0.2,0-0.3,0.1-0.3,0.3l-0.3,1.3
			l-0.3,1.3c0,0.2,0.1,0.3,0.2,0.3c0.6,0,1.7,0,2.4,0c2.2,0,3.4-1.3,4.2-4.9l0.9-4.1l0.8-3.9C16.8,48.7,16.7,48.6,16.5,48.6
			L16.5,48.6z M57.2,56.8c-0.2,0-0.3-0.1-0.2-0.3l2.1-10.1 M60.2,56.6l0.8-4.3L60.2,56.6z"/>
		<path display="inline" fill="#131B28" d="M57,56.7c0-0.1,0-0.3,0-0.4l1-4.8L57,56.7c-0.1,0.1,0,0.2,0.1,0.2h0.3
			C57.4,56.8,57.1,56.8,57,56.7L57,56.7z M60,56.8c-0.1,0-0.3,0.1-0.4,0.1L60,56.8c0.1,0.1,0.2,0,0.2-0.2l0.1-0.3
			C60.2,56.4,60.1,56.7,60,56.8L60,56.8z M60.7,54.4l0.4-1.9l0,0L60.7,54.4z M69.1,47.1l0.1,0.5c0,0.2-0.1,0.3-0.2,0.3 M60.3,56.3
			l0.4-1.9L60.3,56.3z M69,46.7l0.1,0.5L69,46.7z M61,52.5c0-0.2,0.1-0.4,0.1-0.6l0.4-1.9L61,52.3V52.5L61,52.5z M59.2,46.3
			c0,0.1-0.1,0.3-0.1,0.5l-1,4.8l1.1-5V46.3z"/>
		<path display="inline" fill="#131B28" d="M69.3,47.6l-0.1-0.5L69,46.7l-0.1-0.3c-0.3-0.9-0.9-1.5-2.4-1.5h-2.3h-2.1h-2.4
			c-0.2,0-0.3,0.1-0.3,0.3l0,0l-0.1,0.5l-0.1,0.6v0.2l-1.1,5l-1.1,4.9c0,0.2,0,0.3,0,0.4c0,0.1,0.3,0.1,0.5,0.1h2.2
			c0.2,0,0.4,0,0.4-0.1c0.1,0,0.2-0.3,0.2-0.5l0.4-1.9l0.4-1.9l0,0l0.1-0.3l0.5-2.2l0.4-1.9c0-0.2,0.2-0.3,0.3-0.3H69
			C69.2,47.9,69.3,47.8,69.3,47.6z"/>
		<path display="inline" fill="#131B28" d="M78,43.2c-0.2,0-0.4,0-0.5,0h-2.2c-0.2,0-0.4,0.1-0.4,0.2l-4.8,7.1
			c-0.1,0.1-0.2,0.1-0.2,0l-0.4-1.6c0-0.2-0.2-0.3-0.3-0.3h-3.1c-0.2,0-0.2,0.1-0.2,0.3l1.4,4.9c0,0.1,0,0.4,0,0.5l-0.6,2.4
			c0,0.2,0.1,0.3,0.2,0.3h3c0.2,0,0.3-0.1,0.4-0.3l0.6-2.4c0-0.2,0.1-0.4,0.2-0.5l7.8-10.4c0.1-0.1,0-0.2-0.1-0.2H78z M53.4,49.2
			L53.4,49.2c0,0.2-0.2,0.3-0.3,0.3h-3.9c-0.1,0-0.2-0.1-0.2-0.2l0,0l0,0l0,0v-0.1c0.4-1,1.1-1.7,2.6-1.7
			C53.2,47.6,53.6,48.4,53.4,49.2L53.4,49.2z M52.3,44.7c-5,0-6.2,3-6.9,6.1c-0.6,3.1-0.6,6.1,4.6,6.1h0.2c0,0,0,0,0.1,0h0.4
			c0,0,0,0,0.1,0h0.2l0,0c0.2,0,0.5,0,0.6,0l0,0c1.4,0,2.8,0,3.3,0c0.2,0,0.3-0.1,0.3-0.3l0.2-1v-0.2l0.3-1.2c0-0.2-0.1-0.3-0.2-0.3
			h-4.8c-1.8,0-2.4-0.5-2.2-1.9h7.4l0,0l0,0c0.1,0,0.2-0.1,0.3-0.2c0,0,0,0,0-0.1l0,0C57.4,47.6,57.1,44.7,52.3,44.7L52.3,44.7z
			 M28.6,49.2l-0.1,0.3l0,0l-0.5,2l-0.6,2c0,0.2-0.2,0.3-0.4,0.3h-2.9c-2.3,0-2.8-1.7-2.3-4.4c0.6-2.7,1.7-4.3,3.9-4.5
			C28.6,44.6,29.3,46.8,28.6,49.2L28.6,49.2z M30.6,53.6c0,0,1.4-3.4,1.7-5.4c0.5-2.7-0.9-6.5-6-6.5s-7.2,3.7-8.2,7.6
			c-0.8,4,0.3,7.5,5.3,7.5h3.9h3.8c0.2,0,0.3-0.1,0.4-0.3l0.6-2.5c0-0.2-0.1-0.3-0.2-0.3h-0.6h-0.6C30.7,53.8,30.6,53.7,30.6,53.6
			L30.6,53.6L30.6,53.6L30.6,53.6z"/>
		<path display="inline" fill="#131B28" d="M55.8,51.3c0,0.1-0.1,0.2-0.2,0.2s-0.2-0.1-0.2-0.2c0-0.1,0.1-0.2,0.2-0.2
			S55.8,51.2,55.8,51.3z"/>
		<path display="inline" fill="#0A69AD" d="M-8.2,46.8c-1.4,2-1.2,4.7-0.2,6.8c0,0.1,0.1,0.1,0.1,0.2c0,0,0,0.1,0.1,0.1
			c0,0,0,0,0,0.1c0,0,0,0.1,0.1,0.1c0,0.1,0.1,0.1,0.1,0.2c0,0,0,0.1,0.1,0.1c0,0.1,0.1,0.1,0.1,0.2c0,0,0,0.1,0.1,0.1
			c0.1,0.1,0.1,0.2,0.2,0.3l0,0l0,0c0.1,0.1,0.1,0.2,0.2,0.2c0,0,0,0.1,0.1,0.1c0.1,0.1,0.1,0.2,0.2,0.3C-7,55.6-7,55.7-7,55.7l0,0
			c0.2,0.2,0.3,0.3,0.5,0.5c0,0,0,0,0.1,0.1c0.1,0.1,0.2,0.2,0.2,0.2l0,0c0.1,0.1,0.1,0.1,0.2,0.2c0,0,0.1,0,0.1,0.1
			c0.1,0,0.1,0.1,0.2,0.1l0.1,0.1C-5.6,57-5.6,57-5.5,57c0,0,0,0,0.1,0.1l0,0c0.1,0,0.1,0.1,0.2,0.1c0,0,0.1,0,0.1,0.1
			c0.1,0.1,0.2,0.1,0.3,0.2h0.1c0.1,0,0.2,0.1,0.2,0.1s0.1,0,0.1,0.1c0.1,0,0.1,0.1,0.2,0.1l0,0c0,0,0,0,0.1,0
			c0.1,0.1,0.2,0.1,0.3,0.2c0.1,0,0.2,0.1,0.3,0.1h0.1c0.1,0,0.2,0.1,0.3,0.1c0.1,0,0.2,0.1,0.3,0.1h0.1c0.1,0,0.2,0.1,0.3,0.1
			c6.8,1.3,8.7-4,8.7-4c-1.7,2.2-4.6,2.8-7.3,2.1c-0.1,0-0.2-0.1-0.3-0.1c-0.1,0-0.3-0.1-0.4-0.1l0,0c-0.1,0-0.2-0.1-0.3-0.1h-0.1
			c-0.1,0-0.2-0.1-0.3-0.1c0,0,0,0-0.1,0c0-0.2-0.1-0.3-0.2-0.3s-0.1-0.1-0.2-0.1c0,0-0.1,0-0.1-0.1c-0.1,0-0.2-0.1-0.2-0.1h-0.1
			c-0.1-0.1-0.2-0.1-0.3-0.2c0,0-0.1,0-0.1-0.1c-0.1,0-0.2-0.1-0.2-0.1s0,0-0.1-0.1c-0.1,0-0.1-0.1-0.2-0.2c-0.1,0-0.2,0-0.2,0
			c-0.1-0.1-0.2-0.1-0.3-0.2c-0.1-0.1-0.2-0.1-0.2-0.2l0,0c-0.1-0.1-0.2-0.1-0.3-0.2c0,0,0,0-0.1-0.1c0-0.1-0.1-0.2-0.1-0.3
			c0,0,0,0-0.1-0.1c-0.1-0.1-0.1-0.2-0.2-0.2l0,0c-0.1-0.1-0.2-0.2-0.2-0.3c0,0,0,0-0.1-0.1c-0.1-0.1-0.1-0.1-0.2-0.2
			c0,0,0,0-0.1-0.1c0,0-0.1,0-0.1-0.1c-1.6-2.1-2.1-5-0.8-7.4"/>
		<path display="inline" fill="#0A69AD" d="M-3.8,45.2c-1,1.5-0.9,3.4-0.2,5c0.1,0.3,0.3,0.6,0.5,0.7c0.2,0.2,0.4,0.5,0.6,0.6
			c0.1,0.1,0.2,0.2,0.2,0.3c0,0,0,0,0.1,0.1c0.1,0,0.1,0.1,0.2,0.2l0,0l0,0c0.1,0.1,0.2,0.2,0.3,0.2c0,0,0,0,0.1,0.1
			c0.1,0.1,0.2,0.2,0.3,0.2l0,0l0.1,0.1c0,0,0,0,0.1,0s0.2,0.1,0.2,0.1l0,0c0.1,0,0.1,0.1,0.2,0.1c0,0,0,0,0.1,0c0,0,0.1,0,0.1,0.1
			l0,0c0.1,0,0.2,0.1,0.3,0.1c0,0,0,0,0.1,0s0.2,0.1,0.2,0.1h0.1c0.1,0,0.1,0.1,0.2,0.1h0.1c0.1,0,0.2,0.1,0.3,0.1
			c5.2,0.8,6.4-3.2,6.4-3.2c-1.1,1.6-3.2,2.3-5.4,1.7c-0.1,0-0.3-0.1-0.4-0.1s-0.2-0.1-0.3-0.1s-0.2-0.1-0.2-0.1s0,0-0.1,0
			s-0.2-0.1-0.3-0.1c-0.1,0-0.1-0.1-0.1-0.1h-0.1c-0.1,0-0.1-0.1-0.2-0.1l0,0c-0.1,0-0.2-0.1-0.2-0.1s0,0-0.1,0l-0.1-0.1
			C-1,51-1.1,51-1.2,50.9c0,0,0,0-0.1-0.1c-1-0.8-1.7-1.8-2.1-3C-3.7,46.5-3.7,45.1-3,44"/>
		<path display="inline" fill="#0A69AD" d="M-0.2,43.9c-0.6,0.9-0.6,2-0.3,2.9c0.5,1,1.4,1.8,2.4,2.2c0,0,0.1,0,0.1,0.1
			c0,0,0,0,0.1,0s0.1,0,0.2,0.1c2.9,0.6,3.7-1.5,3.9-1.7c-0.6,1-1.8,1.2-3.3,0.9c-0.1,0-0.3-0.1-0.4-0.1c-0.2-0.1-0.3-0.1-0.4-0.2
			c-0.3-0.1-0.5-0.3-0.7-0.5c-1.3-0.9-2-2.8-1.2-4.3 M32.4,61.1L31.6,63h-0.9l0.1-1.7L30.1,63h-0.9v-1.9l0.1-0.5h0.6l-0.1,1.8
			l0.7-1.8h0.9l-0.1,1.9l0.7-1.9h0.6L32.4,61.1z M33.9,61.6c0.1-0.4,0.1-0.5-0.1-0.5h-0.3l-0.3,0.9L33,63h-0.6l0.5-2l0.1-0.3h0.5
			l0.1,0.2c0,0,0.3-0.2,0.6-0.2c0.6,0,0.6,0.5,0.5,1L33.9,61.6L33.9,61.6z M35.6,60.2c-0.3,0-0.4-0.1-0.4-0.4
			c0.1-0.3,0.3-0.4,0.5-0.4c0.3,0,0.4,0.1,0.4,0.4C36,60.2,35.8,60.2,35.6,60.2L35.6,60.2z M35.3,62.9h-0.6l0.1-0.9l0.2-0.8
			l-0.4-0.1l0.1-0.5h1L35.3,62.9L35.3,62.9z M37.6,61.1L37,61.2l-0.2,0.9c-0.1,0.3-0.1,0.3,0.2,0.3h0.5l-0.1,0.5
			c0,0-0.4,0.1-0.6,0.1c-0.6,0-0.6-0.4-0.5-0.9l0.2-0.9H36l0.1-0.5h0.4l0.2-0.6h0.6l-0.1,0.6h0.6L37.6,61.1L37.6,61.1z M39,61.1
			c-0.3,0-0.5,0.2-0.5,0.5l0.9-0.1C39.5,61.2,39.4,61.1,39,61.1z M38.5,62c0,0.3,0.1,0.4,0.5,0.4h0.9l-0.2,0.5c0,0-0.6,0.2-1,0.2
			c-1,0-1-0.5-0.9-1.2c0.1-0.6,0.4-1.2,1.4-1.2s1,0.5,0.7,1.5L38.5,62L38.5,62z M42,62.9h-0.6l0.1-0.9l0.4-1.7l-0.4-0.1l0.1-0.5h1
			L42,62.9L42,62.9z M44,61.1c-0.3,0-0.5,0.2-0.6,0.5l0.9-0.1C44.4,61.2,44.3,61.1,44,61.1z M43.4,62c0,0.3,0.1,0.4,0.5,0.4h0.9
			l-0.1,0.5c0,0-0.6,0.2-1,0.2c-1,0-1-0.5-0.9-1.2c0.1-0.6,0.4-1.2,1.4-1.2c1,0,1,0.5,0.7,1.5L43.4,62L43.4,62z M47.4,61.2
			c0,0-0.6,0-0.8,0c-0.5,0-0.5,0.1-0.5,0.3v0.1l1.3,0.1c0,0,0,0.4-0.1,0.6c-0.1,0.4-0.5,0.7-1.2,0.7c-0.4,0-0.9-0.1-0.9-0.1l0.1-0.5
			h0.8c0.4,0,0.5-0.1,0.5-0.2v-0.2L45.4,62c0,0-0.1-0.3,0-0.6c0.1-0.5,0.5-0.7,1.2-0.7c0.4,0,0.9,0.1,0.9,0.1L47.4,61.2z M49.7,61.2
			c0,0-0.6,0-0.8,0c-0.4,0-0.5,0.1-0.5,0.3v0.1l1.3,0.1c0,0,0,0.4-0.1,0.6c-0.1,0.4-0.5,0.7-1.2,0.7c-0.4,0-0.9-0.1-0.9-0.1l0.1-0.5
			h0.8c0.4,0,0.5-0.1,0.5-0.2v-0.2L47.6,62c0,0,0-0.3,0-0.6c0.1-0.5,0.5-0.7,1.2-0.7c0.4,0,0.9,0.1,0.9,0.1L49.7,61.2z M50.4,63.4
			h-0.5V63c-0.2,0-0.3-0.1-0.2-0.4c0.1-0.3,0.3-0.4,0.5-0.4c0.3,0,0.4,0.1,0.4,0.4L50.4,63.4z M53.5,61.2c-0.4,0-0.5,0.2-0.6,0.6
			c-0.1,0.4-0.1,0.6,0.3,0.6h0.5l0.3-1.2H53.5z M54.3,62.6l-0.1,0.3h-0.5l-0.1-0.2c0,0-0.5,0.2-0.7,0.2c-0.7,0-0.7-0.6-0.6-1.2
			c0.1-0.6,0.5-1.2,1.2-1.2c0.3,0,0.6,0.1,0.6,0.1l0.3-1H55L54.3,62.6L54.3,62.6z M56.3,61.2c-0.5,0-0.6,0.3-0.6,0.6
			c-0.1,0.4,0,0.6,0.4,0.6c0.5,0,0.6-0.3,0.6-0.6C56.7,61.4,56.7,61.2,56.3,61.2L56.3,61.2z M55.8,63c-0.9,0-1-0.6-0.9-1.2
			c0.1-0.6,0.5-1.2,1.5-1.2c0.9,0,1,0.5,0.9,1.2C57.1,62.4,56.8,63,55.8,63L55.8,63z M61.2,62.9l0.1-0.9l0.1-0.3
			c0.1-0.4,0.1-0.6-0.3-0.6h-0.3c0,0.2,0,0.4-0.1,0.6l-0.3,1.2h-0.6l0.1-0.9l0.1-0.3c0.1-0.4,0.1-0.6-0.3-0.6h-0.3l-0.4,1.7h-0.6
			l0.5-2.4h0.5l0.1,0.2c0,0,0.4-0.2,0.6-0.2c0.2,0,0.4,0.1,0.4,0.2c0.1-0.1,0.5-0.2,0.6-0.2c0.7,0,0.7,0.6,0.6,1.2l-0.3,1.2h-0.3
			V62.9L61.2,62.9z M63.7,61.2c-0.5,0-0.6,0.3-0.6,0.6c-0.1,0.4,0,0.6,0.4,0.6c0.5,0,0.6-0.3,0.6-0.6C64.3,61.4,64.2,61.2,63.7,61.2
			z M63.3,63c-0.9,0-1-0.6-0.9-1.2c0.1-0.6,0.5-1.2,1.5-1.2c0.9,0,1,0.5,0.9,1.2C64.6,62.4,64.3,63,63.3,63z M66.4,61.6
			c0.1-0.4,0.1-0.5-0.1-0.5H66L65.8,62l-0.3,0.9H65l0.5-2l0.1-0.3H66l0.1,0.2c0,0,0.3-0.2,0.5-0.2c0.6,0,0.6,0.5,0.5,1H66.4z
			 M68.5,61.1c-0.3,0-0.5,0.2-0.6,0.5l0.9-0.1C68.8,61.2,68.8,61.1,68.5,61.1z M67.8,62c0,0.3,0.1,0.4,0.5,0.4h0.9l-0.1,0.5
			c0,0-0.6,0.2-1,0.2c-1,0-1-0.5-0.9-1.2c0.1-0.6,0.4-1.2,1.4-1.2s1,0.5,0.7,1.5L67.8,62L67.8,62z M69.9,63c-0.3,0-0.4-0.1-0.4-0.4
			c0.1-0.3,0.3-0.4,0.5-0.4s0.4,0.1,0.4,0.4S70.1,63,69.9,63z"/>
	</g>
	<g display="none">
		<path display="inline" fill="#F6DF1B" d="M3.7,18.9h59.9v59.9H3.7V18.9z"/>
		<path display="inline" fill="#010101" d="M19.5,69l4.6-2.8c0.9,1.6,1.7,2.9,3.6,2.9c1.8,0,3-0.7,3-3.6V46.4h5.6v19.3
			c0,5.9-3.4,8.5-8.4,8.5C23.4,74.1,20.8,71.8,19.5,69 M39.4,68.4l4.6-2.7c1.2,1.9,2.8,3.4,5.6,3.4c2.3,0,3.9-1.2,3.9-2.8
			c0-1.9-1.6-2.7-4.1-3.8L47.9,62c-4-1.7-6.8-3.9-6.8-8.5c0-4.2,3.2-7.4,8.3-7.4c3.6,0,6.1,1.3,8,4.5L53,53.4c-1-1.7-2-2.4-3.6-2.4
			c-1.7,0-2.7,1-2.7,2.4c0,1.7,1,2.4,3.5,3.4l1.4,0.6c4.8,2,7.5,4.1,7.5,8.8c0,5-3.9,7.9-9.4,7.9C44.4,74.1,41,71.6,39.4,68.4"/>
	</g>
	<g>
		<path fill="#FFFFFF" d="M0.9,51.4c0,4.9,4.8,9.4,12.2,11.9c-1.5,7.5-0.3,13.6,3.9,15.9c4.2,2.4,10.5,0.7,16.4-4.4
			c5.8,5,11.7,7,15.7,4.6c4.2-2.4,5.5-8.9,3.9-16.6c7.8-2.6,12.1-6.4,12.1-11.3c0-4.8-4.8-8.8-12.1-11.4c1.7-8.1,0.3-13.9-4-16.4
			c-4.1-2.4-10-0.3-15.9,4.8c-6.1-5.4-11.9-7.1-16.2-4.6c-4.1,2.4-5.2,8.5-3.8,16.2C6,42.5,0.9,46.7,0.9,51.4z"/>
		<path fill="#54C1DE" d="M51.5,42.5c-0.6-0.2-1.2-0.4-1.8-0.6c0.1-0.5,0.2-0.8,0.3-1.3c1.4-6.7,0.5-12.2-2.7-13.9
			c-2.9-1.7-7.8,0.1-12.8,4.3c-0.5,0.5-0.9,0.8-1.4,1.3c-0.3-0.3-0.6-0.6-0.9-0.9c-5.1-4.6-10.3-6.5-13.4-4.7
			c-2.9,1.7-3.9,6.8-2.6,13.2c0.1,0.6,0.3,1.3,0.5,1.9c-0.7,0.2-1.5,0.5-2.1,0.6c-6.1,2.2-10,5.5-10,8.9c0,3.5,4.1,7.1,10.5,9.2
			c0.6,0.2,1,0.4,1.6,0.5c-0.2,0.6-0.3,1.4-0.5,2C15,69.3,15.9,74.4,18.8,76c3,1.7,8.2-0.1,13.2-4.4c0.4-0.4,0.8-0.7,1.2-1.1
			c0.5,0.5,1,0.9,1.6,1.4c4.9,4.1,9.6,5.9,12.6,4.1c3-1.7,4-7.2,2.8-13.7c-0.1-0.5-0.2-1-0.4-1.6c0.4-0.1,0.7-0.2,1.1-0.4
			c6.5-2.2,10.7-5.7,10.7-9.3C61.6,48,57.6,44.7,51.5,42.5L51.5,42.5z"/>
		<path fill="#FFFFFF" d="M50,58.4c-0.3,0.1-0.6,0.2-0.9,0.3c-0.7-2.3-1.7-4.7-2.8-7.3c1.1-2.5,2.1-4.9,2.8-7.2
			c0.6,0.2,1.2,0.4,1.7,0.6c5.2,1.8,8.4,4.5,8.4,6.6C59.1,53.6,55.7,56.5,50,58.4L50,58.4z M47.7,63c0.6,2.8,0.6,5.5,0.3,7.5
			c-0.4,1.8-1,3-1.8,3.6c-1.8,1-5.6-0.3-9.8-3.9c-0.5-0.4-0.9-0.8-1.5-1.3c1.6-1.7,3.2-3.8,4.8-6.1c2.8-0.3,5.3-0.6,7.7-1.2
			C47.5,62.1,47.6,62.5,47.7,63L47.7,63z M24.1,73.9c-1.7,0.6-3.1,0.6-4,0.2c-1.8-1-2.6-5-1.6-10.4c0.1-0.6,0.3-1.3,0.5-1.9
			c2.3,0.5,5,0.9,7.7,1.1c1.6,2.2,3.2,4.2,4.9,6.1c-0.4,0.4-0.7,0.6-1.1,1C28.2,71.8,26,73.2,24.1,73.9L24.1,73.9z M15.8,58.3
			c-2.8-0.9-5-2.2-6.6-3.5c-1.4-1.2-2.1-2.4-2.1-3.4c0-2.1,3.1-4.7,8.3-6.5c0.6-0.2,1.3-0.5,1.9-0.6c0.7,2.3,1.7,4.8,2.8,7.2
			c-1.1,2.5-2.1,5-2.8,7.3C16.7,58.7,16.3,58.5,15.8,58.3z M18.6,39.6c-1.1-5.5-0.4-9.6,1.5-10.6c1.9-1.1,6.1,0.5,10.6,4.4
			c0.3,0.3,0.6,0.6,0.8,0.8c-1.7,1.7-3.3,3.8-4.9,6c-2.7,0.3-5.2,0.6-7.6,1.2C18.8,40.8,18.7,40.2,18.6,39.6L18.6,39.6z M43.1,45.6
			c-0.6-0.9-1.1-1.9-1.7-2.8c1.8,0.3,3.6,0.6,5.2,0.9c-0.5,1.6-1.1,3.2-1.8,4.9C44.3,47.7,43.7,46.7,43.1,45.6L43.1,45.6z
			 M33.1,35.9c1.1,1.2,2.2,2.6,3.4,4c-2.2-0.1-4.5-0.1-6.7,0C30.9,38.5,32,37.1,33.1,35.9z M23.1,45.6c-0.6,1-1.1,1.9-1.7,2.9
			c-0.7-1.7-1.3-3.3-1.8-5c1.7-0.4,3.4-0.6,5.1-0.9C24.2,43.7,23.6,44.7,23.1,45.6z M24.9,60.2c-1.8-0.2-3.6-0.5-5.2-0.8
			c0.5-1.7,1.1-3.3,1.8-5c0.6,1,1,2,1.7,2.9C23.6,58.3,24.2,59.2,24.9,60.2z M33.2,67.1c-1.2-1.3-2.3-2.7-3.4-4.1
			c1.1,0,2.2,0.1,3.3,0.1c1.2,0,2.3,0,3.4-0.1C35.4,64.6,34.3,65.9,33.2,67.1z M44.8,54.3c0.7,1.7,1.4,3.4,1.9,5
			c-1.7,0.4-3.4,0.6-5.3,0.9c0.6-0.9,1.2-1.9,1.7-2.9C43.7,56.3,44.3,55.3,44.8,54.3L44.8,54.3z M41,56.1c-0.8,1.5-1.7,2.9-2.8,4.4
			c-1.7,0.1-3.4,0.2-5.2,0.2c-1.7,0-3.5-0.1-5.1-0.2c-1-1.5-1.9-2.9-2.8-4.4s-1.7-3-2.4-4.6c0.7-1.6,1.6-3.1,2.4-4.6l0,0
			c0.8-1.5,1.7-2.9,2.8-4.4c1.7-0.1,3.4-0.2,5.2-0.2c1.7,0,3.5,0.1,5.2,0.2c1,1.5,1.8,2.8,2.8,4.4c0.8,1.5,1.7,3,2.5,4.6
			C42.8,53,42,54.6,41,56.1L41,56.1z M46.1,28.9c1.9,1.1,2.7,5.5,1.5,11.4c-0.1,0.4-0.2,0.7-0.3,1.1c-2.4-0.6-5-0.9-7.6-1.2
			c-1.6-2.2-3.2-4.2-4.8-6c0.5-0.4,0.8-0.8,1.3-1.2C40.3,29.3,44.3,27.8,46.1,28.9L46.1,28.9z"/>
		<path fill="#54C1DE" d="M33.1,46.4c2.8,0,5,2.3,5,5c0,2.8-2.3,5-5,5c-2.8,0-5-2.3-5-5C28,48.6,30.3,46.4,33.1,46.4"/>
	</g>
	<g display="none">
		<path display="inline" fill="#FEC24C" d="M4.3,74.9l0.5-0.7L28.1,30l0.1-0.5L17.9,10.2c-0.8-1.7-3.3-1.2-3.6,0.6L4.3,74.9z"/>
		<g display="inline">
			<path id="a" fill="#FAA71C" d="M4.7,74.4l0.4-0.7l23-43.8L17.8,10.5c-0.8-1.6-3-1.2-3.3,0.6L4.7,74.4z"/>
		</g>
		<g display="inline">
			<path id="a_13_" fill="#010101" d="M4.7,74.4l0.4-0.7l23-43.8L17.8,10.5c-0.8-1.6-3-1.2-3.3,0.6L4.7,74.4z"/>
		</g>
		<path display="inline" fill="#F3BD63" d="M35.7,44.1l7.6-7.8l-7.6-14.6c-0.7-1.4-2.8-1.4-3.5,0l-4.1,7.8v0.6L35.7,44.1L35.7,44.1z
			"/>
		<g display="inline">
			<path id="c" fill="#FAA51A" d="M35.6,43.8l7.4-7.6l-7.4-14.1c-0.7-1.4-2.4-1.5-3.1-0.1l-4.1,7.9l-0.1,0.4L35.6,43.8z"/>
		</g>
		<g display="inline">
			<path id="c_13_" fill="#010101" d="M35.6,43.8l7.4-7.6l-7.4-14.1c-0.7-1.4-2.4-1.5-3.1-0.1l-4.1,7.9l-0.1,0.4L35.6,43.8z"/>
		</g>
		<path display="inline" fill="#F58220" d="M4.3,74.9l0.2-0.2l0.8-0.4l29.8-29.7l0.4-1l-7.4-14.2L4.3,74.9z"/>
		<path display="inline" fill="#FCE069" d="M36.6,89.9l27-15.1l-7.7-47.4c-0.3-1.5-2-2.1-3.1-1L4.3,74.9l26.8,15
			C32.9,90.9,35,90.9,36.6,89.9"/>
		<path display="inline" fill="#FCCB3F" d="M63.4,74.7l-7.6-47.1c-0.3-1.5-1.7-2.1-2.8-1L4.7,74.8l26.5,14.9c1.7,0.9,3.8,0.9,5.4,0
			L63.4,74.7L63.4,74.7z"/>
		<path display="inline" fill="#EEAC38" d="M36.6,89.4c-1.7,0.9-3.8,0.9-5.4,0L4.6,74.6l-0.2,0.2l26.8,15c1.7,0.9,3.8,0.9,5.4,0
			l27-15l-0.1-0.4L36.6,89.4L36.6,89.4z"/>
	</g>
</g>
</svg>
